<svg xmlns="http://www.w3.org/2000/svg" viewBox="0 0 781.5 328.12"><title>树枝勾4</title><path d="M727,30s-49.67,27.67-96.33,55.67c0,0-114,73.33-262.67,104,0,0-97.33,18-173.33,22.66,0,0-41.34-.66-42.67,8.67,0,0-8,6.67,32.67,8.67,0,0,116,6.66,203.33-12,0,0,85.57-19.44,102.67-23.34,19-4.33,68.66-19.33,104-40,0,0,4.33-3.33,2.33,1.67,0,0-17,62.67-100.33,123,0,0-35,20-44.67,23.67S417.29,317.46,418,319c0,0-2,5,12,0,0,0,52-17.67,67-25s73.67-48.33,94.67-82.33c0,0,34.33-60.34,60.66-79.67s19.67-20,181-100.67Z" transform="translate(-51.84 -30)" style="fill:#050202;isolation:isolate"/><path d="M152,216.75s-14.25-25-32.5-34.75a49.49,49.49,0,0,0-39.75-7.25s-6,.75-9,0c0,0-8.25-.75-3.75,10.25,0,0,8.5,23.75,41.5,31.25,0,0,7.5,1,18,1.5s22.5,1.5,24.25,2.25C150.75,220,155.25,221,152,216.75Z" transform="translate(-51.84 -30)" style="fill:#3c6933;isolation:isolate"/><path d="M166.26,227.22s-14.07,39.93-7.46,69c0,0,1.39,29.92,29.87,49.47,0,0,6.55,5.64,8.58,9.57,0,0,7,9.52,14.9-6.16,0,0,18.17-32.57-5-75.11,0,0-6-9-15.5-20.63s-19.78-25.42-20.62-28C171,225.33,167.86,219.56,166.26,227.22Z" transform="translate(-51.84 -30)" style="fill:#3c6933;isolation:isolate"/><path d="M436.89,178.3s7.54-23.12,2-42.34c0,0-2.18-19-21.69-35.36,0,0-4.54-4.47-6-7.24,0,0-5-7-9.52,1.77,0,0-10.54,17.91,6.46,48,0,0,4.34,6.5,11,15.18s14.06,18.8,14.72,20.55C433.83,178.81,436.17,182.9,436.89,178.3Z" transform="translate(-51.84 -30)" style="fill:#3c6933;isolation:isolate"/><path d="M398.34,194.3s8.74,52.11,26.3,77.47c0,0,14.47,30.15,42.23,29.26,0,0,6.91,1,10,3.58,0,0,9,4.67,7.1-17.56,0,0-2.69-47.5-37.33-74.54a195.82,195.82,0,0,0-19.63-9.94c-11.56-5.1-24.65-11.73-26.39-13.81C400.66,188.76,395.93,185.11,398.34,194.3Z" transform="translate(-51.84 -30)" style="fill:#3c6933;isolation:isolate"/><path d="M446.27,309.71s4.31,20.61,12.74,29.79c0,0,7,11.32,20.18,9.17,0,0,3.29,0,4.78.81,0,0,4.29,1.32,3.33-7.59,0,0-1.42-19.14-18-27.9a89.19,89.19,0,0,0-9.37-2.77c-5.51-1.33-11.76-3.18-12.59-3.92C447.36,307.3,445.1,306.13,446.27,309.71Z" transform="translate(-51.84 -30)" style="fill:#3c6933;isolation:isolate"/><path d="M553.1,246.07s-4.09-21.82-16.93-33c0,0-10-13-32.74-13.76,0,0-5.57-.68-8-1.87,0,0-7-2.29-6.82,6.94,0,0-.57,19.68,26.1,32.22,0,0,6.3,2.32,15.43,4.88s19.42,5.83,20.71,6.76C550.88,248.26,554.53,250,553.1,246.07Z" transform="translate(-51.84 -30)" style="fill:#3c6933;isolation:isolate"/><path d="M587.06,217.92s5.81,22,16.94,33.43c0,0,9.24,13.22,26.58,14.27,0,0,4.31.76,6.28,2,0,0,5.64,2.39,4.33-6.91,0,0-2-19.82-23.82-32.78,0,0-5.07-2.42-12.33-5.12s-15.47-6.11-16.57-7.06C588.47,215.74,585.5,214,587.06,217.92Z" transform="translate(-51.84 -30)" style="fill:#3c6933;isolation:isolate"/><path d="M788.85,48.83s-11.16,14.74-10.8,29.71c0,0-2.36,14,10,30.15,0,0,2.71,4.23,3.33,6.54,0,0,2.57,6.13,8.13.93,0,0,12.46-10.34,5.16-35.63,0,0-2.12-5.63-5.69-13.35s-7.35-16.61-7.5-18C791.45,49.17,790.43,45.72,788.85,48.83Z" transform="translate(-51.84 -30)" style="fill:#3c6933;isolation:isolate"/><path d="M141.82,219.81S91.86,221.7,56,282c0,0-10,22.67,1,38.67,0,0,5,8.33,3.67,15.66,0,0-.34,7.34,3,9.67S70,348.67,78,347.67c0,0,9.67-3.67,16.33-.67,0,0,26.67,6.33,46-15.33,19.95-22.36,43.67-54.59,38-102.67,0,0-3-9.19-12.49-10.6C159.49,217.46,141.82,219.81,141.82,219.81Z" transform="translate(-51.84 -30)" style="fill:#f7f4a4;isolation:isolate"/></svg>