<svg width="455" height="174" viewBox="0 0 455 174" fill="none" xmlns="http://www.w3.org/2000/svg">
<line x1="2" y1="159" x2="2" y2="7" stroke="black" stroke-opacity="0.5" stroke-width="4"/>
<path d="M27.655 39.285L40.03 27.315C40.39 26.955 40.765 26.58 41.155 26.19C41.545 25.77 41.89 25.335 42.19 24.885C42.52 24.435 42.79 23.97 43 23.49C43.21 22.98 43.315 22.455 43.315 21.915C43.315 21.255 43.18 20.67 42.91 20.16C42.67 19.65 42.34 19.215 41.92 18.855C41.5 18.495 41.005 18.225 40.435 18.045C39.895 17.835 39.31 17.73 38.68 17.73C37.33 17.73 36.22 18.12 35.35 18.9C34.48 19.68 33.955 20.73 33.775 22.05L28.105 21.6C28.225 20.13 28.57 18.84 29.14 17.73C29.74 16.59 30.505 15.645 31.435 14.895C32.365 14.145 33.445 13.575 34.675 13.185C35.905 12.795 37.24 12.6 38.68 12.6C40.12 12.6 41.455 12.795 42.685 13.185C43.945 13.545 45.04 14.1 45.97 14.85C46.9 15.57 47.635 16.5 48.175 17.64C48.715 18.78 48.985 20.115 48.985 21.645C48.985 23.655 48.52 25.395 47.59 26.865C46.69 28.305 45.52 29.685 44.08 31.005L34.225 40.14H48.985V45H27.655V39.285ZM60.2709 33.39L52.8009 23.4H59.3709L63.6909 29.88L68.3709 23.4H74.5359L67.1559 33.39L75.8409 45H69.2709L63.6459 37.26L57.9759 45H51.5859L60.2709 33.39Z" fill="#43C040"/>
<path d="M27.508 72.156H25.264V70.704H27.508V68.394C27.508 67.7633 27.5667 67.1913 27.684 66.678C27.8013 66.15 27.9993 65.6953 28.278 65.314C28.5713 64.9327 28.9527 64.6393 29.422 64.434C29.8913 64.214 30.4707 64.104 31.16 64.104C31.38 64.104 31.6147 64.126 31.864 64.17C32.1133 64.214 32.3187 64.28 32.48 64.368L32.238 65.908C31.8273 65.7613 31.4387 65.688 31.072 65.688C30.632 65.688 30.2873 65.7687 30.038 65.93C29.7887 66.0767 29.598 66.2893 29.466 66.568C29.3487 66.832 29.2753 67.1547 29.246 67.536C29.2313 67.9173 29.224 68.328 29.224 68.768V70.704H31.732V72.156H29.224V81H27.508V72.156ZM33.4355 72.024C33.9635 71.4813 34.5868 71.0853 35.3055 70.836C36.0388 70.572 36.7795 70.44 37.5275 70.44C39.0528 70.44 40.1528 70.7993 40.8275 71.518C41.5021 72.2367 41.8395 73.3293 41.8395 74.796V79.218C41.8395 79.5113 41.8541 79.8193 41.8835 80.142C41.9128 80.45 41.9495 80.736 41.9935 81H40.3435C40.2848 80.7653 40.2481 80.5087 40.2335 80.23C40.2335 79.9367 40.2335 79.68 40.2335 79.46H40.1895C39.8521 79.988 39.3975 80.4207 38.8255 80.758C38.2681 81.0953 37.5935 81.264 36.8015 81.264C36.2735 81.264 35.7748 81.198 35.3055 81.066C34.8508 80.934 34.4475 80.7433 34.0955 80.494C33.7581 80.23 33.4868 79.9073 33.2815 79.526C33.0761 79.1447 32.9735 78.7047 32.9735 78.206C32.9735 77.3553 33.1935 76.688 33.6335 76.204C34.0735 75.72 34.6161 75.3607 35.2615 75.126C35.9215 74.8913 36.6255 74.7447 37.3735 74.686C38.1361 74.6273 38.8328 74.598 39.4635 74.598H40.1235V74.29C40.1235 73.542 39.8961 72.9773 39.4415 72.596C39.0015 72.2147 38.3781 72.024 37.5715 72.024C37.0141 72.024 36.4641 72.1193 35.9215 72.31C35.3935 72.486 34.9241 72.7647 34.5135 73.146L33.4355 72.024ZM38.4075 76.05C37.3075 76.05 36.4348 76.204 35.7895 76.512C35.1441 76.82 34.8215 77.326 34.8215 78.03C34.8215 78.6753 35.0341 79.1373 35.4595 79.416C35.8995 79.68 36.4421 79.812 37.0875 79.812C37.5861 79.812 38.0188 79.7313 38.3855 79.57C38.7668 79.394 39.0821 79.1667 39.3315 78.888C39.5808 78.6093 39.7715 78.2867 39.9035 77.92C40.0355 77.5387 40.1088 77.1353 40.1235 76.71V76.05H38.4075ZM45.1957 78.294C45.533 78.7193 45.8997 79.0567 46.2957 79.306C46.7063 79.5553 47.2197 79.68 47.8357 79.68C48.0997 79.68 48.3637 79.6507 48.6277 79.592C48.9063 79.5333 49.1557 79.438 49.3757 79.306C49.5957 79.174 49.7717 79.0127 49.9037 78.822C50.0357 78.6167 50.1017 78.3747 50.1017 78.096C50.1017 77.8173 50.0357 77.59 49.9037 77.414C49.7863 77.238 49.625 77.0913 49.4197 76.974C49.2143 76.842 48.9797 76.7393 48.7157 76.666C48.4517 76.5927 48.1803 76.5267 47.9017 76.468C47.4177 76.3653 46.9557 76.248 46.5157 76.116C46.0757 75.984 45.687 75.8153 45.3497 75.61C45.027 75.39 44.763 75.1113 44.5577 74.774C44.367 74.4367 44.2717 74.004 44.2717 73.476C44.2717 72.9773 44.3817 72.5373 44.6017 72.156C44.8217 71.7747 45.115 71.4593 45.4817 71.21C45.8483 70.9607 46.259 70.77 46.7137 70.638C47.1683 70.506 47.6377 70.44 48.1217 70.44C48.855 70.44 49.5297 70.5867 50.1457 70.88C50.7763 71.1733 51.2677 71.65 51.6197 72.31L50.1897 73.256C49.9697 72.8893 49.6763 72.596 49.3097 72.376C48.9577 72.1413 48.525 72.024 48.0117 72.024C47.777 72.024 47.535 72.0533 47.2857 72.112C47.051 72.1707 46.8383 72.2587 46.6477 72.376C46.457 72.4933 46.2957 72.6473 46.1637 72.838C46.0463 73.014 45.9877 73.2193 45.9877 73.454C45.9877 73.674 46.0537 73.8647 46.1857 74.026C46.3323 74.1727 46.523 74.3047 46.7577 74.422C47.007 74.5393 47.2857 74.642 47.5937 74.73C47.9163 74.818 48.2463 74.8913 48.5837 74.95C49.0383 75.038 49.471 75.1553 49.8817 75.302C50.2923 75.434 50.6517 75.6173 50.9597 75.852C51.2677 76.0867 51.5097 76.38 51.6857 76.732C51.8617 77.084 51.9497 77.5167 51.9497 78.03C51.9497 78.6167 51.8323 79.1153 51.5977 79.526C51.363 79.9367 51.0477 80.274 50.6517 80.538C50.2703 80.7873 49.8303 80.9707 49.3317 81.088C48.8477 81.2053 48.349 81.264 47.8357 81.264C46.9557 81.264 46.193 81.132 45.5477 80.868C44.917 80.5893 44.345 80.0833 43.8317 79.35L45.1957 78.294ZM59.9748 72.156H56.9388V77.304C56.9388 77.6413 56.9462 77.9567 56.9608 78.25C56.9755 78.5287 57.0342 78.778 57.1368 78.998C57.2395 79.2033 57.3935 79.372 57.5988 79.504C57.8042 79.6213 58.0975 79.68 58.4788 79.68C58.7282 79.68 58.9848 79.6507 59.2488 79.592C59.5128 79.5333 59.7622 79.4453 59.9968 79.328L60.0628 80.89C59.7695 81.022 59.4395 81.1173 59.0728 81.176C58.7208 81.2347 58.3835 81.264 58.0608 81.264C57.4448 81.264 56.9535 81.1833 56.5868 81.022C56.2202 80.8607 55.9342 80.6333 55.7288 80.34C55.5235 80.0467 55.3842 79.6873 55.3108 79.262C55.2522 78.822 55.2228 78.338 55.2228 77.81V72.156H52.9788V70.704H55.2228V67.778H56.9388V70.704H59.9748V72.156ZM71.2732 79.13C70.6572 79.922 69.9826 80.4793 69.2492 80.802C68.5159 81.11 67.6652 81.264 66.6972 81.264C65.8906 81.264 65.1646 81.1247 64.5192 80.846C63.8739 80.5527 63.3239 80.164 62.8692 79.68C62.4292 79.196 62.0846 78.624 61.8352 77.964C61.6006 77.304 61.4832 76.6 61.4832 75.852C61.4832 75.06 61.6152 74.334 61.8792 73.674C62.1432 72.9993 62.5099 72.4273 62.9792 71.958C63.4486 71.474 64.0059 71.1 64.6512 70.836C65.2966 70.572 66.0006 70.44 66.7632 70.44C67.4819 70.44 68.1419 70.5647 68.7432 70.814C69.3446 71.0487 69.8579 71.4007 70.2832 71.87C70.7232 72.3247 71.0606 72.8893 71.2952 73.564C71.5299 74.224 71.6472 74.9793 71.6472 75.83V76.38H63.3312C63.3606 76.82 63.4632 77.2453 63.6392 77.656C63.8299 78.052 64.0719 78.404 64.3652 78.712C64.6586 79.0053 65.0032 79.24 65.3992 79.416C65.7952 79.592 66.2279 79.68 66.6972 79.68C67.4452 79.68 68.0759 79.548 68.5892 79.284C69.1026 79.02 69.5646 78.6313 69.9752 78.118L71.2732 79.13ZM69.7992 74.928C69.7699 74.048 69.4839 73.344 68.9412 72.816C68.3986 72.288 67.6506 72.024 66.6972 72.024C65.7439 72.024 64.9739 72.288 64.3872 72.816C63.8006 73.344 63.4486 74.048 63.3312 74.928H69.7992ZM74.3018 73.146C74.3018 72.6767 74.2872 72.2367 74.2578 71.826C74.2285 71.4153 74.2138 71.0413 74.2138 70.704H75.8418C75.8418 70.9827 75.8492 71.2613 75.8638 71.54C75.8785 71.8187 75.8858 72.1047 75.8858 72.398H75.9298C76.0472 72.1487 76.2085 71.9067 76.4138 71.672C76.6338 71.4373 76.8905 71.232 77.1838 71.056C77.4772 70.8653 77.8072 70.7187 78.1738 70.616C78.5405 70.4987 78.9365 70.44 79.3618 70.44C79.4792 70.44 79.5965 70.4473 79.7138 70.462C79.8312 70.4767 79.9485 70.506 80.0658 70.55L79.9558 72.288C79.6625 72.2 79.3545 72.156 79.0318 72.156C77.9758 72.156 77.2058 72.5007 76.7218 73.19C76.2525 73.8647 76.0178 74.796 76.0178 75.984V81H74.3018V73.146ZM88.3133 70.704H90.0293V81H88.3133V70.704ZM87.9173 66.678C87.9173 66.3407 88.0346 66.0473 88.2693 65.798C88.5186 65.5487 88.8193 65.424 89.1713 65.424C89.5233 65.424 89.8166 65.5487 90.0513 65.798C90.3006 66.0473 90.4253 66.3407 90.4253 66.678C90.4253 67.0447 90.3079 67.3453 90.0733 67.58C89.8386 67.8147 89.5379 67.932 89.1713 67.932C88.8046 67.932 88.5039 67.8147 88.2693 67.58C88.0346 67.3453 87.9173 67.0447 87.9173 66.678ZM93.4444 73.146C93.4444 72.6767 93.4297 72.2367 93.4004 71.826C93.3711 71.4153 93.3564 71.0413 93.3564 70.704H94.9844C94.9844 70.9827 94.9917 71.2613 95.0064 71.54C95.0211 71.8187 95.0284 72.1047 95.0284 72.398H95.0724C95.1897 72.1487 95.3511 71.9067 95.5564 71.672C95.7764 71.4373 96.0331 71.232 96.3264 71.056C96.6197 70.8653 96.9497 70.7187 97.3164 70.616C97.6831 70.4987 98.0791 70.44 98.5044 70.44C99.1791 70.44 99.7584 70.5427 100.242 70.748C100.741 70.9533 101.152 71.2393 101.474 71.606C101.797 71.9727 102.032 72.42 102.178 72.948C102.34 73.4613 102.42 74.026 102.42 74.642V81H100.704V74.818C100.704 73.9527 100.514 73.2707 100.132 72.772C99.7511 72.2733 99.1571 72.024 98.3504 72.024C97.7931 72.024 97.3091 72.1193 96.8984 72.31C96.5024 72.5007 96.1724 72.772 95.9084 73.124C95.6591 73.476 95.4684 73.894 95.3364 74.378C95.2191 74.862 95.1604 75.3973 95.1604 75.984V81H93.4444V73.146ZM116.478 81H114.586L110.384 70.704H112.386L115.598 78.778H115.642L118.7 70.704H120.548L116.478 81ZM122.559 70.704H124.275V81H122.559V70.704ZM122.163 66.678C122.163 66.3407 122.281 66.0473 122.515 65.798C122.765 65.5487 123.065 65.424 123.417 65.424C123.769 65.424 124.063 65.5487 124.297 65.798C124.547 66.0473 124.671 66.3407 124.671 66.678C124.671 67.0447 124.554 67.3453 124.319 67.58C124.085 67.8147 123.784 67.932 123.417 67.932C123.051 67.932 122.75 67.8147 122.515 67.58C122.281 67.3453 122.163 67.0447 122.163 66.678ZM136.249 79.174H136.205C135.882 79.7607 135.369 80.2593 134.665 80.67C133.975 81.066 133.169 81.264 132.245 81.264C131.526 81.264 130.851 81.132 130.221 80.868C129.59 80.5893 129.04 80.208 128.571 79.724C128.116 79.24 127.757 78.668 127.493 78.008C127.229 77.348 127.097 76.6293 127.097 75.852C127.097 75.0747 127.229 74.356 127.493 73.696C127.757 73.036 128.123 72.464 128.593 71.98C129.062 71.496 129.627 71.122 130.287 70.858C130.961 70.5793 131.702 70.44 132.509 70.44C133.257 70.44 133.939 70.594 134.555 70.902C135.185 71.21 135.735 71.6427 136.205 72.2H136.249V64.368H137.965V81H136.249V79.174ZM136.249 75.852C136.249 75.3093 136.161 74.8107 135.985 74.356C135.823 73.8867 135.581 73.4833 135.259 73.146C134.936 72.794 134.547 72.5227 134.093 72.332C133.653 72.1267 133.154 72.024 132.597 72.024C132.039 72.024 131.533 72.1267 131.079 72.332C130.639 72.5227 130.257 72.794 129.935 73.146C129.612 73.4833 129.363 73.8867 129.187 74.356C129.025 74.8107 128.945 75.3093 128.945 75.852C128.945 76.3947 129.025 76.9007 129.187 77.37C129.363 77.8247 129.612 78.228 129.935 78.58C130.257 78.9173 130.639 79.1887 131.079 79.394C131.533 79.5847 132.039 79.68 132.597 79.68C133.154 79.68 133.653 79.5847 134.093 79.394C134.547 79.1887 134.936 78.9173 135.259 78.58C135.581 78.228 135.823 77.8247 135.985 77.37C136.161 76.9007 136.249 76.3947 136.249 75.852ZM150.336 79.13C149.72 79.922 149.045 80.4793 148.312 80.802C147.578 81.11 146.728 81.264 145.76 81.264C144.953 81.264 144.227 81.1247 143.582 80.846C142.936 80.5527 142.386 80.164 141.932 79.68C141.492 79.196 141.147 78.624 140.898 77.964C140.663 77.304 140.546 76.6 140.546 75.852C140.546 75.06 140.678 74.334 140.942 73.674C141.206 72.9993 141.572 72.4273 142.042 71.958C142.511 71.474 143.068 71.1 143.714 70.836C144.359 70.572 145.063 70.44 145.826 70.44C146.544 70.44 147.204 70.5647 147.806 70.814C148.407 71.0487 148.92 71.4007 149.346 71.87C149.786 72.3247 150.123 72.8893 150.358 73.564C150.592 74.224 150.71 74.9793 150.71 75.83V76.38H142.394C142.423 76.82 142.526 77.2453 142.702 77.656C142.892 78.052 143.134 78.404 143.428 78.712C143.721 79.0053 144.066 79.24 144.462 79.416C144.858 79.592 145.29 79.68 145.76 79.68C146.508 79.68 147.138 79.548 147.652 79.284C148.165 79.02 148.627 78.6313 149.038 78.118L150.336 79.13ZM148.862 74.928C148.832 74.048 148.546 73.344 148.004 72.816C147.461 72.288 146.713 72.024 145.76 72.024C144.806 72.024 144.036 72.288 143.45 72.816C142.863 73.344 142.511 74.048 142.394 74.928H148.862ZM152.77 75.852C152.77 75.0453 152.91 74.312 153.188 73.652C153.467 72.992 153.848 72.4273 154.332 71.958C154.816 71.474 155.396 71.1 156.07 70.836C156.745 70.572 157.478 70.44 158.27 70.44C159.062 70.44 159.796 70.572 160.47 70.836C161.145 71.1 161.724 71.474 162.208 71.958C162.692 72.4273 163.074 72.992 163.352 73.652C163.631 74.312 163.77 75.0453 163.77 75.852C163.77 76.6587 163.631 77.392 163.352 78.052C163.074 78.712 162.692 79.284 162.208 79.768C161.724 80.2373 161.145 80.604 160.47 80.868C159.796 81.132 159.062 81.264 158.27 81.264C157.478 81.264 156.745 81.132 156.07 80.868C155.396 80.604 154.816 80.2373 154.332 79.768C153.848 79.284 153.467 78.712 153.188 78.052C152.91 77.392 152.77 76.6587 152.77 75.852ZM154.618 75.852C154.618 76.3947 154.699 76.9007 154.86 77.37C155.036 77.8247 155.286 78.228 155.608 78.58C155.931 78.9173 156.312 79.1887 156.752 79.394C157.207 79.5847 157.713 79.68 158.27 79.68C158.828 79.68 159.326 79.5847 159.766 79.394C160.221 79.1887 160.61 78.9173 160.932 78.58C161.255 78.228 161.497 77.8247 161.658 77.37C161.834 76.9007 161.922 76.3947 161.922 75.852C161.922 75.3093 161.834 74.8107 161.658 74.356C161.497 73.8867 161.255 73.4833 160.932 73.146C160.61 72.794 160.221 72.5227 159.766 72.332C159.326 72.1267 158.828 72.024 158.27 72.024C157.713 72.024 157.207 72.1267 156.752 72.332C156.312 72.5227 155.931 72.794 155.608 73.146C155.286 73.4833 155.036 73.8867 154.86 74.356C154.699 74.8107 154.618 75.3093 154.618 75.852ZM179.876 73.278C179.509 72.838 179.113 72.5227 178.688 72.332C178.263 72.1267 177.793 72.024 177.28 72.024C176.708 72.024 176.202 72.1267 175.762 72.332C175.322 72.5227 174.955 72.794 174.662 73.146C174.383 73.498 174.171 73.9087 174.024 74.378C173.877 74.8327 173.804 75.324 173.804 75.852C173.804 76.38 173.885 76.8787 174.046 77.348C174.222 77.8027 174.457 78.206 174.75 78.558C175.058 78.91 175.425 79.1887 175.85 79.394C176.275 79.5847 176.752 79.68 177.28 79.68C178.409 79.68 179.282 79.2547 179.898 78.404L181.174 79.614C180.675 80.186 180.089 80.604 179.414 80.868C178.739 81.132 178.028 81.264 177.28 81.264C176.488 81.264 175.762 81.132 175.102 80.868C174.442 80.604 173.877 80.23 173.408 79.746C172.953 79.262 172.594 78.69 172.33 78.03C172.081 77.37 171.956 76.644 171.956 75.852C171.956 75.0747 172.081 74.356 172.33 73.696C172.594 73.036 172.961 72.464 173.43 71.98C173.899 71.496 174.457 71.122 175.102 70.858C175.762 70.5793 176.488 70.44 177.28 70.44C178.043 70.44 178.761 70.572 179.436 70.836C180.125 71.1 180.727 71.5107 181.24 72.068L179.876 73.278ZM182.569 75.852C182.569 75.0453 182.708 74.312 182.987 73.652C183.266 72.992 183.647 72.4273 184.131 71.958C184.615 71.474 185.194 71.1 185.869 70.836C186.544 70.572 187.277 70.44 188.069 70.44C188.861 70.44 189.594 70.572 190.269 70.836C190.944 71.1 191.523 71.474 192.007 71.958C192.491 72.4273 192.872 72.992 193.151 73.652C193.43 74.312 193.569 75.0453 193.569 75.852C193.569 76.6587 193.43 77.392 193.151 78.052C192.872 78.712 192.491 79.284 192.007 79.768C191.523 80.2373 190.944 80.604 190.269 80.868C189.594 81.132 188.861 81.264 188.069 81.264C187.277 81.264 186.544 81.132 185.869 80.868C185.194 80.604 184.615 80.2373 184.131 79.768C183.647 79.284 183.266 78.712 182.987 78.052C182.708 77.392 182.569 76.6587 182.569 75.852ZM184.417 75.852C184.417 76.3947 184.498 76.9007 184.659 77.37C184.835 77.8247 185.084 78.228 185.407 78.58C185.73 78.9173 186.111 79.1887 186.551 79.394C187.006 79.5847 187.512 79.68 188.069 79.68C188.626 79.68 189.125 79.5847 189.565 79.394C190.02 79.1887 190.408 78.9173 190.731 78.58C191.054 78.228 191.296 77.8247 191.457 77.37C191.633 76.9007 191.721 76.3947 191.721 75.852C191.721 75.3093 191.633 74.8107 191.457 74.356C191.296 73.8867 191.054 73.4833 190.731 73.146C190.408 72.794 190.02 72.5227 189.565 72.332C189.125 72.1267 188.626 72.024 188.069 72.024C187.512 72.024 187.006 72.1267 186.551 72.332C186.111 72.5227 185.73 72.794 185.407 73.146C185.084 73.4833 184.835 73.8867 184.659 74.356C184.498 74.8107 184.417 75.3093 184.417 75.852ZM196.226 73.146C196.226 72.6767 196.211 72.2367 196.182 71.826C196.152 71.4153 196.138 71.0413 196.138 70.704H197.766C197.766 70.9827 197.773 71.2613 197.788 71.54C197.802 71.8187 197.81 72.1047 197.81 72.398H197.854C197.971 72.1487 198.132 71.9067 198.338 71.672C198.558 71.4373 198.814 71.232 199.108 71.056C199.401 70.8653 199.731 70.7187 200.098 70.616C200.464 70.4987 200.86 70.44 201.286 70.44C201.96 70.44 202.54 70.5427 203.024 70.748C203.522 70.9533 203.933 71.2393 204.256 71.606C204.578 71.9727 204.813 72.42 204.96 72.948C205.121 73.4613 205.202 74.026 205.202 74.642V81H203.486V74.818C203.486 73.9527 203.295 73.2707 202.914 72.772C202.532 72.2733 201.938 72.024 201.132 72.024C200.574 72.024 200.09 72.1193 199.68 72.31C199.284 72.5007 198.954 72.772 198.69 73.124C198.44 73.476 198.25 73.894 198.118 74.378C198 74.862 197.942 75.3973 197.942 75.984V81H196.226V73.146ZM214.082 72.156H211.046V77.304C211.046 77.6413 211.054 77.9567 211.068 78.25C211.083 78.5287 211.142 78.778 211.244 78.998C211.347 79.2033 211.501 79.372 211.706 79.504C211.912 79.6213 212.205 79.68 212.586 79.68C212.836 79.68 213.092 79.6507 213.356 79.592C213.62 79.5333 213.87 79.4453 214.104 79.328L214.17 80.89C213.877 81.022 213.547 81.1173 213.18 81.176C212.828 81.2347 212.491 81.264 212.168 81.264C211.552 81.264 211.061 81.1833 210.694 81.022C210.328 80.8607 210.042 80.6333 209.836 80.34C209.631 80.0467 209.492 79.6873 209.418 79.262C209.36 78.822 209.33 78.338 209.33 77.81V72.156H207.086V70.704H209.33V67.778H211.046V70.704H214.082V72.156ZM225.381 79.13C224.765 79.922 224.09 80.4793 223.357 80.802C222.623 81.11 221.773 81.264 220.805 81.264C219.998 81.264 219.272 81.1247 218.627 80.846C217.981 80.5527 217.431 80.164 216.977 79.68C216.537 79.196 216.192 78.624 215.943 77.964C215.708 77.304 215.591 76.6 215.591 75.852C215.591 75.06 215.723 74.334 215.987 73.674C216.251 72.9993 216.617 72.4273 217.087 71.958C217.556 71.474 218.113 71.1 218.759 70.836C219.404 70.572 220.108 70.44 220.871 70.44C221.589 70.44 222.249 70.5647 222.851 70.814C223.452 71.0487 223.965 71.4007 224.391 71.87C224.831 72.3247 225.168 72.8893 225.403 73.564C225.637 74.224 225.755 74.9793 225.755 75.83V76.38H217.439C217.468 76.82 217.571 77.2453 217.747 77.656C217.937 78.052 218.179 78.404 218.473 78.712C218.766 79.0053 219.111 79.24 219.507 79.416C219.903 79.592 220.335 79.68 220.805 79.68C221.553 79.68 222.183 79.548 222.697 79.284C223.21 79.02 223.672 78.6313 224.083 78.118L225.381 79.13ZM223.907 74.928C223.877 74.048 223.591 73.344 223.049 72.816C222.506 72.288 221.758 72.024 220.805 72.024C219.851 72.024 219.081 72.288 218.495 72.816C217.908 73.344 217.556 74.048 217.439 74.928H223.907ZM228.409 73.146C228.409 72.6767 228.395 72.2367 228.365 71.826C228.336 71.4153 228.321 71.0413 228.321 70.704H229.949C229.949 70.9827 229.957 71.2613 229.971 71.54C229.986 71.8187 229.993 72.1047 229.993 72.398H230.037C230.155 72.1487 230.316 71.9067 230.521 71.672C230.741 71.4373 230.998 71.232 231.291 71.056C231.585 70.8653 231.915 70.7187 232.281 70.616C232.648 70.4987 233.044 70.44 233.469 70.44C234.144 70.44 234.723 70.5427 235.207 70.748C235.706 70.9533 236.117 71.2393 236.439 71.606C236.762 71.9727 236.997 72.42 237.143 72.948C237.305 73.4613 237.385 74.026 237.385 74.642V81H235.669V74.818C235.669 73.9527 235.479 73.2707 235.097 72.772C234.716 72.2733 234.122 72.024 233.315 72.024C232.758 72.024 232.274 72.1193 231.863 72.31C231.467 72.5007 231.137 72.772 230.873 73.124C230.624 73.476 230.433 73.894 230.301 74.378C230.184 74.862 230.125 75.3973 230.125 75.984V81H228.409V73.146ZM246.266 72.156H243.23V77.304C243.23 77.6413 243.237 77.9567 243.252 78.25C243.267 78.5287 243.325 78.778 243.428 78.998C243.531 79.2033 243.685 79.372 243.89 79.504C244.095 79.6213 244.389 79.68 244.77 79.68C245.019 79.68 245.276 79.6507 245.54 79.592C245.804 79.5333 246.053 79.4453 246.288 79.328L246.354 80.89C246.061 81.022 245.731 81.1173 245.364 81.176C245.012 81.2347 244.675 81.264 244.352 81.264C243.736 81.264 243.245 81.1833 242.878 81.022C242.511 80.8607 242.225 80.6333 242.02 80.34C241.815 80.0467 241.675 79.6873 241.602 79.262C241.543 78.822 241.514 78.338 241.514 77.81V72.156H239.27V70.704H241.514V67.778H243.23V70.704H246.266V72.156ZM254.403 70.704H256.119V72.2H256.163C256.633 71.6427 257.175 71.21 257.791 70.902C258.422 70.594 259.111 70.44 259.859 70.44C260.666 70.44 261.399 70.5793 262.059 70.858C262.734 71.122 263.306 71.496 263.775 71.98C264.245 72.464 264.611 73.036 264.875 73.696C265.139 74.356 265.271 75.0747 265.271 75.852C265.271 76.6293 265.139 77.348 264.875 78.008C264.611 78.668 264.245 79.24 263.775 79.724C263.321 80.208 262.778 80.5893 262.147 80.868C261.517 81.132 260.842 81.264 260.123 81.264C259.199 81.264 258.385 81.066 257.681 80.67C256.992 80.2593 256.486 79.7607 256.163 79.174H256.119V86.016H254.403V70.704ZM256.119 75.852C256.119 76.3947 256.2 76.9007 256.361 77.37C256.537 77.8247 256.787 78.228 257.109 78.58C257.432 78.9173 257.813 79.1887 258.253 79.394C258.708 79.5847 259.214 79.68 259.771 79.68C260.329 79.68 260.827 79.5847 261.267 79.394C261.722 79.1887 262.111 78.9173 262.433 78.58C262.756 78.228 262.998 77.8247 263.159 77.37C263.335 76.9007 263.423 76.3947 263.423 75.852C263.423 75.3093 263.335 74.8107 263.159 74.356C262.998 73.8867 262.756 73.4833 262.433 73.146C262.111 72.794 261.722 72.5227 261.267 72.332C260.827 72.1267 260.329 72.024 259.771 72.024C259.214 72.024 258.708 72.1267 258.253 72.332C257.813 72.5227 257.432 72.794 257.109 73.146C256.787 73.4833 256.537 73.8867 256.361 74.356C256.2 74.8107 256.119 75.3093 256.119 75.852ZM267.941 73.146C267.941 72.6767 267.926 72.2367 267.897 71.826C267.867 71.4153 267.853 71.0413 267.853 70.704H269.481C269.481 70.9827 269.488 71.2613 269.503 71.54C269.517 71.8187 269.525 72.1047 269.525 72.398H269.569C269.686 72.1487 269.847 71.9067 270.053 71.672C270.273 71.4373 270.529 71.232 270.823 71.056C271.116 70.8653 271.446 70.7187 271.812 70.616C272.179 70.4987 272.575 70.44 273.001 70.44C273.118 70.44 273.235 70.4473 273.353 70.462C273.47 70.4767 273.587 70.506 273.705 70.55L273.595 72.288C273.301 72.2 272.993 72.156 272.671 72.156C271.615 72.156 270.845 72.5007 270.361 73.19C269.891 73.8647 269.657 74.796 269.657 75.984V81H267.941V73.146ZM274.694 75.852C274.694 75.0453 274.833 74.312 275.112 73.652C275.391 72.992 275.772 72.4273 276.256 71.958C276.74 71.474 277.319 71.1 277.994 70.836C278.669 70.572 279.402 70.44 280.194 70.44C280.986 70.44 281.719 70.572 282.394 70.836C283.069 71.1 283.648 71.474 284.132 71.958C284.616 72.4273 284.997 72.992 285.276 73.652C285.555 74.312 285.694 75.0453 285.694 75.852C285.694 76.6587 285.555 77.392 285.276 78.052C284.997 78.712 284.616 79.284 284.132 79.768C283.648 80.2373 283.069 80.604 282.394 80.868C281.719 81.132 280.986 81.264 280.194 81.264C279.402 81.264 278.669 81.132 277.994 80.868C277.319 80.604 276.74 80.2373 276.256 79.768C275.772 79.284 275.391 78.712 275.112 78.052C274.833 77.392 274.694 76.6587 274.694 75.852ZM276.542 75.852C276.542 76.3947 276.623 76.9007 276.784 77.37C276.96 77.8247 277.209 78.228 277.532 78.58C277.855 78.9173 278.236 79.1887 278.676 79.394C279.131 79.5847 279.637 79.68 280.194 79.68C280.751 79.68 281.25 79.5847 281.69 79.394C282.145 79.1887 282.533 78.9173 282.856 78.58C283.179 78.228 283.421 77.8247 283.582 77.37C283.758 76.9007 283.846 76.3947 283.846 75.852C283.846 75.3093 283.758 74.8107 283.582 74.356C283.421 73.8867 283.179 73.4833 282.856 73.146C282.533 72.794 282.145 72.5227 281.69 72.332C281.25 72.1267 280.751 72.024 280.194 72.024C279.637 72.024 279.131 72.1267 278.676 72.332C278.236 72.5227 277.855 72.794 277.532 73.146C277.209 73.4833 276.96 73.8867 276.784 74.356C276.623 74.8107 276.542 75.3093 276.542 75.852ZM296.909 79.174H296.865C296.542 79.7607 296.029 80.2593 295.325 80.67C294.635 81.066 293.829 81.264 292.905 81.264C292.186 81.264 291.511 81.132 290.881 80.868C290.25 80.5893 289.7 80.208 289.231 79.724C288.776 79.24 288.417 78.668 288.153 78.008C287.889 77.348 287.757 76.6293 287.757 75.852C287.757 75.0747 287.889 74.356 288.153 73.696C288.417 73.036 288.783 72.464 289.253 71.98C289.722 71.496 290.287 71.122 290.947 70.858C291.621 70.5793 292.362 70.44 293.169 70.44C293.917 70.44 294.599 70.594 295.215 70.902C295.845 71.21 296.395 71.6427 296.865 72.2H296.909V64.368H298.625V81H296.909V79.174ZM296.909 75.852C296.909 75.3093 296.821 74.8107 296.645 74.356C296.483 73.8867 296.241 73.4833 295.919 73.146C295.596 72.794 295.207 72.5227 294.753 72.332C294.313 72.1267 293.814 72.024 293.257 72.024C292.699 72.024 292.193 72.1267 291.739 72.332C291.299 72.5227 290.917 72.794 290.595 73.146C290.272 73.4833 290.023 73.8867 289.847 74.356C289.685 74.8107 289.605 75.3093 289.605 75.852C289.605 76.3947 289.685 76.9007 289.847 77.37C290.023 77.8247 290.272 78.228 290.595 78.58C290.917 78.9173 291.299 79.1887 291.739 79.394C292.193 79.5847 292.699 79.68 293.257 79.68C293.814 79.68 294.313 79.5847 294.753 79.394C295.207 79.1887 295.596 78.9173 295.919 78.58C296.241 78.228 296.483 77.8247 296.645 77.37C296.821 76.9007 296.909 76.3947 296.909 75.852ZM310.776 78.558C310.776 79.0273 310.791 79.4673 310.82 79.878C310.849 80.2887 310.864 80.6627 310.864 81H309.236C309.236 80.7213 309.229 80.4427 309.214 80.164C309.199 79.8853 309.192 79.5993 309.192 79.306H309.148C309.031 79.5553 308.862 79.7973 308.642 80.032C308.437 80.2667 308.187 80.4793 307.894 80.67C307.601 80.846 307.271 80.9853 306.904 81.088C306.537 81.2053 306.141 81.264 305.716 81.264C305.041 81.264 304.455 81.1613 303.956 80.956C303.472 80.7507 303.069 80.4647 302.746 80.098C302.423 79.7313 302.181 79.2913 302.02 78.778C301.873 78.25 301.8 77.678 301.8 77.062V70.704H303.516V76.886C303.516 77.7513 303.707 78.4333 304.088 78.932C304.469 79.4307 305.063 79.68 305.87 79.68C306.427 79.68 306.904 79.5847 307.3 79.394C307.711 79.2033 308.041 78.932 308.29 78.58C308.554 78.228 308.745 77.81 308.862 77.326C308.994 76.842 309.06 76.3067 309.06 75.72V70.704H310.776V78.558ZM321.35 73.278C320.984 72.838 320.588 72.5227 320.162 72.332C319.737 72.1267 319.268 72.024 318.754 72.024C318.182 72.024 317.676 72.1267 317.236 72.332C316.796 72.5227 316.43 72.794 316.136 73.146C315.858 73.498 315.645 73.9087 315.498 74.378C315.352 74.8327 315.278 75.324 315.278 75.852C315.278 76.38 315.359 76.8787 315.52 77.348C315.696 77.8027 315.931 78.206 316.224 78.558C316.532 78.91 316.899 79.1887 317.324 79.394C317.75 79.5847 318.226 79.68 318.754 79.68C319.884 79.68 320.756 79.2547 321.372 78.404L322.648 79.614C322.15 80.186 321.563 80.604 320.888 80.868C320.214 81.132 319.502 81.264 318.754 81.264C317.962 81.264 317.236 81.132 316.576 80.868C315.916 80.604 315.352 80.23 314.882 79.746C314.428 79.262 314.068 78.69 313.804 78.03C313.555 77.37 313.43 76.644 313.43 75.852C313.43 75.0747 313.555 74.356 313.804 73.696C314.068 73.036 314.435 72.464 314.904 71.98C315.374 71.496 315.931 71.122 316.576 70.858C317.236 70.5793 317.962 70.44 318.754 70.44C319.517 70.44 320.236 70.572 320.91 70.836C321.6 71.1 322.201 71.5107 322.714 72.068L321.35 73.278ZM330.27 72.156H327.234V77.304C327.234 77.6413 327.241 77.9567 327.256 78.25C327.27 78.5287 327.329 78.778 327.432 78.998C327.534 79.2033 327.688 79.372 327.894 79.504C328.099 79.6213 328.392 79.68 328.774 79.68C329.023 79.68 329.28 79.6507 329.544 79.592C329.808 79.5333 330.057 79.4453 330.292 79.328L330.358 80.89C330.064 81.022 329.734 81.1173 329.368 81.176C329.016 81.2347 328.678 81.264 328.356 81.264C327.74 81.264 327.248 81.1833 326.882 81.022C326.515 80.8607 326.229 80.6333 326.024 80.34C325.818 80.0467 325.679 79.6873 325.606 79.262C325.547 78.822 325.518 78.338 325.518 77.81V72.156H323.274V70.704H325.518V67.778H327.234V70.704H330.27V72.156ZM332.548 70.704H334.264V81H332.548V70.704ZM332.152 66.678C332.152 66.3407 332.269 66.0473 332.504 65.798C332.753 65.5487 333.054 65.424 333.406 65.424C333.758 65.424 334.051 65.5487 334.286 65.798C334.535 66.0473 334.66 66.3407 334.66 66.678C334.66 67.0447 334.542 67.3453 334.308 67.58C334.073 67.8147 333.772 67.932 333.406 67.932C333.039 67.932 332.738 67.8147 332.504 67.58C332.269 67.3453 332.152 67.0447 332.152 66.678ZM337.085 75.852C337.085 75.0453 337.224 74.312 337.503 73.652C337.781 72.992 338.163 72.4273 338.647 71.958C339.131 71.474 339.71 71.1 340.385 70.836C341.059 70.572 341.793 70.44 342.585 70.44C343.377 70.44 344.11 70.572 344.785 70.836C345.459 71.1 346.039 71.474 346.523 71.958C347.007 72.4273 347.388 72.992 347.667 73.652C347.945 74.312 348.085 75.0453 348.085 75.852C348.085 76.6587 347.945 77.392 347.667 78.052C347.388 78.712 347.007 79.284 346.523 79.768C346.039 80.2373 345.459 80.604 344.785 80.868C344.11 81.132 343.377 81.264 342.585 81.264C341.793 81.264 341.059 81.132 340.385 80.868C339.71 80.604 339.131 80.2373 338.647 79.768C338.163 79.284 337.781 78.712 337.503 78.052C337.224 77.392 337.085 76.6587 337.085 75.852ZM338.933 75.852C338.933 76.3947 339.013 76.9007 339.175 77.37C339.351 77.8247 339.6 78.228 339.923 78.58C340.245 78.9173 340.627 79.1887 341.067 79.394C341.521 79.5847 342.027 79.68 342.585 79.68C343.142 79.68 343.641 79.5847 344.081 79.394C344.535 79.1887 344.924 78.9173 345.247 78.58C345.569 78.228 345.811 77.8247 345.973 77.37C346.149 76.9007 346.237 76.3947 346.237 75.852C346.237 75.3093 346.149 74.8107 345.973 74.356C345.811 73.8867 345.569 73.4833 345.247 73.146C344.924 72.794 344.535 72.5227 344.081 72.332C343.641 72.1267 343.142 72.024 342.585 72.024C342.027 72.024 341.521 72.1267 341.067 72.332C340.627 72.5227 340.245 72.794 339.923 73.146C339.6 73.4833 339.351 73.8867 339.175 74.356C339.013 74.8107 338.933 75.3093 338.933 75.852ZM350.741 73.146C350.741 72.6767 350.727 72.2367 350.697 71.826C350.668 71.4153 350.653 71.0413 350.653 70.704H352.281C352.281 70.9827 352.289 71.2613 352.303 71.54C352.318 71.8187 352.325 72.1047 352.325 72.398H352.369C352.487 72.1487 352.648 71.9067 352.853 71.672C353.073 71.4373 353.33 71.232 353.623 71.056C353.917 70.8653 354.247 70.7187 354.613 70.616C354.98 70.4987 355.376 70.44 355.801 70.44C356.476 70.44 357.055 70.5427 357.539 70.748C358.038 70.9533 358.449 71.2393 358.771 71.606C359.094 71.9727 359.329 72.42 359.475 72.948C359.637 73.4613 359.717 74.026 359.717 74.642V81H358.001V74.818C358.001 73.9527 357.811 73.2707 357.429 72.772C357.048 72.2733 356.454 72.024 355.647 72.024C355.09 72.024 354.606 72.1193 354.195 72.31C353.799 72.5007 353.469 72.772 353.205 73.124C352.956 73.476 352.765 73.894 352.633 74.378C352.516 74.862 352.457 75.3973 352.457 75.984V81H350.741V73.146ZM364.396 78.492C364.763 78.492 365.071 78.624 365.32 78.888C365.584 79.1373 365.716 79.4453 365.716 79.812C365.716 80.1787 365.577 80.494 365.298 80.758C365.034 81.0073 364.733 81.132 364.396 81.132C364.059 81.132 363.751 81.0073 363.472 80.758C363.208 80.494 363.076 80.1787 363.076 79.812C363.076 79.4453 363.201 79.1373 363.45 78.888C363.714 78.624 364.029 78.492 364.396 78.492ZM375.52 65.424H377.368V81H375.52V65.424ZM380.927 73.146C380.927 72.6767 380.912 72.2367 380.883 71.826C380.853 71.4153 380.839 71.0413 380.839 70.704H382.467C382.467 70.9827 382.474 71.2613 382.489 71.54C382.503 71.8187 382.511 72.1047 382.511 72.398H382.555C382.672 72.1487 382.833 71.9067 383.039 71.672C383.259 71.4373 383.515 71.232 383.809 71.056C384.102 70.8653 384.432 70.7187 384.799 70.616C385.165 70.4987 385.561 70.44 385.987 70.44C386.661 70.44 387.241 70.5427 387.725 70.748C388.223 70.9533 388.634 71.2393 388.957 71.606C389.279 71.9727 389.514 72.42 389.661 72.948C389.822 73.4613 389.903 74.026 389.903 74.642V81H388.187V74.818C388.187 73.9527 387.996 73.2707 387.615 72.772C387.233 72.2733 386.639 72.024 385.833 72.024C385.275 72.024 384.791 72.1193 384.381 72.31C383.985 72.5007 383.655 72.772 383.391 73.124C383.141 73.476 382.951 73.894 382.819 74.378C382.701 74.862 382.643 75.3973 382.643 75.984V81H380.927V73.146ZM401.709 79.174H401.665C401.343 79.7607 400.829 80.2593 400.125 80.67C399.436 81.066 398.629 81.264 397.705 81.264C396.987 81.264 396.312 81.132 395.681 80.868C395.051 80.5893 394.501 80.208 394.031 79.724C393.577 79.24 393.217 78.668 392.953 78.008C392.689 77.348 392.557 76.6293 392.557 75.852C392.557 75.0747 392.689 74.356 392.953 73.696C393.217 73.036 393.584 72.464 394.053 71.98C394.523 71.496 395.087 71.122 395.747 70.858C396.422 70.5793 397.163 70.44 397.969 70.44C398.717 70.44 399.399 70.594 400.015 70.902C400.646 71.21 401.196 71.6427 401.665 72.2H401.709V64.368H403.425V81H401.709V79.174ZM401.709 75.852C401.709 75.3093 401.621 74.8107 401.445 74.356C401.284 73.8867 401.042 73.4833 400.719 73.146C400.397 72.794 400.008 72.5227 399.553 72.332C399.113 72.1267 398.615 72.024 398.057 72.024C397.5 72.024 396.994 72.1267 396.539 72.332C396.099 72.5227 395.718 72.794 395.395 73.146C395.073 73.4833 394.823 73.8867 394.647 74.356C394.486 74.8107 394.405 75.3093 394.405 75.852C394.405 76.3947 394.486 76.9007 394.647 77.37C394.823 77.8247 395.073 78.228 395.395 78.58C395.718 78.9173 396.099 79.1887 396.539 79.394C396.994 79.5847 397.5 79.68 398.057 79.68C398.615 79.68 399.113 79.5847 399.553 79.394C400.008 79.1887 400.397 78.9173 400.719 78.58C401.042 78.228 401.284 77.8247 401.445 77.37C401.621 76.9007 401.709 76.3947 401.709 75.852ZM415.577 78.558C415.577 79.0273 415.591 79.4673 415.621 79.878C415.65 80.2887 415.665 80.6627 415.665 81H414.037C414.037 80.7213 414.029 80.4427 414.015 80.164C414 79.8853 413.993 79.5993 413.993 79.306H413.949C413.831 79.5553 413.663 79.7973 413.443 80.032C413.237 80.2667 412.988 80.4793 412.695 80.67C412.401 80.846 412.071 80.9853 411.705 81.088C411.338 81.2053 410.942 81.264 410.517 81.264C409.842 81.264 409.255 81.1613 408.757 80.956C408.273 80.7507 407.869 80.4647 407.547 80.098C407.224 79.7313 406.982 79.2913 406.821 78.778C406.674 78.25 406.601 77.678 406.601 77.062V70.704H408.317V76.886C408.317 77.7513 408.507 78.4333 408.889 78.932C409.27 79.4307 409.864 79.68 410.671 79.68C411.228 79.68 411.705 79.5847 412.101 79.394C412.511 79.2033 412.841 78.932 413.091 78.58C413.355 78.228 413.545 77.81 413.663 77.326C413.795 76.842 413.861 76.3067 413.861 75.72V70.704H415.577V78.558ZM419.045 78.294C419.383 78.7193 419.749 79.0567 420.145 79.306C420.556 79.5553 421.069 79.68 421.685 79.68C421.949 79.68 422.213 79.6507 422.477 79.592C422.756 79.5333 423.005 79.438 423.225 79.306C423.445 79.174 423.621 79.0127 423.753 78.822C423.885 78.6167 423.951 78.3747 423.951 78.096C423.951 77.8173 423.885 77.59 423.753 77.414C423.636 77.238 423.475 77.0913 423.269 76.974C423.064 76.842 422.829 76.7393 422.565 76.666C422.301 76.5927 422.03 76.5267 421.751 76.468C421.267 76.3653 420.805 76.248 420.365 76.116C419.925 75.984 419.537 75.8153 419.199 75.61C418.877 75.39 418.613 75.1113 418.407 74.774C418.217 74.4367 418.121 74.004 418.121 73.476C418.121 72.9773 418.231 72.5373 418.451 72.156C418.671 71.7747 418.965 71.4593 419.331 71.21C419.698 70.9607 420.109 70.77 420.563 70.638C421.018 70.506 421.487 70.44 421.971 70.44C422.705 70.44 423.379 70.5867 423.995 70.88C424.626 71.1733 425.117 71.65 425.469 72.31L424.039 73.256C423.819 72.8893 423.526 72.596 423.159 72.376C422.807 72.1413 422.375 72.024 421.861 72.024C421.627 72.024 421.385 72.0533 421.135 72.112C420.901 72.1707 420.688 72.2587 420.497 72.376C420.307 72.4933 420.145 72.6473 420.013 72.838C419.896 73.014 419.837 73.2193 419.837 73.454C419.837 73.674 419.903 73.8647 420.035 74.026C420.182 74.1727 420.373 74.3047 420.607 74.422C420.857 74.5393 421.135 74.642 421.443 74.73C421.766 74.818 422.096 74.8913 422.433 74.95C422.888 75.038 423.321 75.1553 423.731 75.302C424.142 75.434 424.501 75.6173 424.809 75.852C425.117 76.0867 425.359 76.38 425.535 76.732C425.711 77.084 425.799 77.5167 425.799 78.03C425.799 78.6167 425.682 79.1153 425.447 79.526C425.213 79.9367 424.897 80.274 424.501 80.538C424.12 80.7873 423.68 80.9707 423.181 81.088C422.697 81.2053 422.199 81.264 421.685 81.264C420.805 81.264 420.043 81.132 419.397 80.868C418.767 80.5893 418.195 80.0833 417.681 79.35L419.045 78.294ZM433.824 72.156H430.788V77.304C430.788 77.6413 430.796 77.9567 430.81 78.25C430.825 78.5287 430.884 78.778 430.986 78.998C431.089 79.2033 431.243 79.372 431.448 79.504C431.654 79.6213 431.947 79.68 432.328 79.68C432.578 79.68 432.834 79.6507 433.098 79.592C433.362 79.5333 433.612 79.4453 433.846 79.328L433.912 80.89C433.619 81.022 433.289 81.1173 432.922 81.176C432.57 81.2347 432.233 81.264 431.91 81.264C431.294 81.264 430.803 81.1833 430.436 81.022C430.07 80.8607 429.784 80.6333 429.578 80.34C429.373 80.0467 429.234 79.6873 429.16 79.262C429.102 78.822 429.072 78.338 429.072 77.81V72.156H426.828V70.704H429.072V67.778H430.788V70.704H433.824V72.156ZM435.927 73.146C435.927 72.6767 435.912 72.2367 435.883 71.826C435.853 71.4153 435.839 71.0413 435.839 70.704H437.467C437.467 70.9827 437.474 71.2613 437.489 71.54C437.503 71.8187 437.511 72.1047 437.511 72.398H437.555C437.672 72.1487 437.833 71.9067 438.039 71.672C438.259 71.4373 438.515 71.232 438.809 71.056C439.102 70.8653 439.432 70.7187 439.799 70.616C440.165 70.4987 440.561 70.44 440.987 70.44C441.104 70.44 441.221 70.4473 441.339 70.462C441.456 70.4767 441.573 70.506 441.691 70.55L441.581 72.288C441.287 72.2 440.979 72.156 440.657 72.156C439.601 72.156 438.831 72.5007 438.347 73.19C437.877 73.8647 437.643 74.796 437.643 75.984V81H435.927V73.146ZM447.445 83.354C447.269 83.794 447.086 84.19 446.895 84.542C446.719 84.9087 446.499 85.2167 446.235 85.466C445.986 85.73 445.678 85.928 445.311 86.06C444.959 86.2067 444.527 86.28 444.013 86.28C443.764 86.28 443.5 86.2653 443.221 86.236C442.957 86.2067 442.708 86.1333 442.473 86.016L442.693 84.52C442.869 84.5933 443.053 84.6373 443.243 84.652C443.434 84.6813 443.654 84.696 443.903 84.696C444.461 84.696 444.871 84.542 445.135 84.234C445.399 83.926 445.627 83.5153 445.817 83.002L446.521 81.066L442.253 70.704H444.255L447.445 78.778H447.489L450.547 70.704H452.417L447.445 83.354ZM26.496 108.024C27.024 107.481 27.6473 107.085 28.366 106.836C29.0993 106.572 29.84 106.44 30.588 106.44C32.1133 106.44 33.2133 106.799 33.888 107.518C34.5627 108.237 34.9 109.329 34.9 110.796V115.218C34.9 115.511 34.9147 115.819 34.944 116.142C34.9733 116.45 35.01 116.736 35.054 117H33.404C33.3453 116.765 33.3087 116.509 33.294 116.23C33.294 115.937 33.294 115.68 33.294 115.46H33.25C32.9127 115.988 32.458 116.421 31.886 116.758C31.3287 117.095 30.654 117.264 29.862 117.264C29.334 117.264 28.8353 117.198 28.366 117.066C27.9113 116.934 27.508 116.743 27.156 116.494C26.8187 116.23 26.5473 115.907 26.342 115.526C26.1367 115.145 26.034 114.705 26.034 114.206C26.034 113.355 26.254 112.688 26.694 112.204C27.134 111.72 27.6767 111.361 28.322 111.126C28.982 110.891 29.686 110.745 30.434 110.686C31.1967 110.627 31.8933 110.598 32.524 110.598H33.184V110.29C33.184 109.542 32.9567 108.977 32.502 108.596C32.062 108.215 31.4387 108.024 30.632 108.024C30.0747 108.024 29.5247 108.119 28.982 108.31C28.454 108.486 27.9847 108.765 27.574 109.146L26.496 108.024ZM31.468 112.05C30.368 112.05 29.4953 112.204 28.85 112.512C28.2047 112.82 27.882 113.326 27.882 114.03C27.882 114.675 28.0947 115.137 28.52 115.416C28.96 115.68 29.5027 115.812 30.148 115.812C30.6467 115.812 31.0793 115.731 31.446 115.57C31.8273 115.394 32.1427 115.167 32.392 114.888C32.6413 114.609 32.832 114.287 32.964 113.92C33.096 113.539 33.1693 113.135 33.184 112.71V112.05H31.468ZM42.7222 117H40.8302L36.6282 106.704H38.6302L41.8422 114.778H41.8862L44.9442 106.704H46.7922L42.7222 117ZM57.8455 115.13C57.2295 115.922 56.5548 116.479 55.8215 116.802C55.0882 117.11 54.2375 117.264 53.2695 117.264C52.4628 117.264 51.7368 117.125 51.0915 116.846C50.4462 116.553 49.8962 116.164 49.4415 115.68C49.0015 115.196 48.6568 114.624 48.4075 113.964C48.1728 113.304 48.0555 112.6 48.0555 111.852C48.0555 111.06 48.1875 110.334 48.4515 109.674C48.7155 108.999 49.0822 108.427 49.5515 107.958C50.0208 107.474 50.5782 107.1 51.2235 106.836C51.8688 106.572 52.5728 106.44 53.3355 106.44C54.0542 106.44 54.7142 106.565 55.3155 106.814C55.9168 107.049 56.4302 107.401 56.8555 107.87C57.2955 108.325 57.6328 108.889 57.8675 109.564C58.1022 110.224 58.2195 110.979 58.2195 111.83V112.38H49.9035C49.9328 112.82 50.0355 113.245 50.2115 113.656C50.4022 114.052 50.6442 114.404 50.9375 114.712C51.2308 115.005 51.5755 115.24 51.9715 115.416C52.3675 115.592 52.8002 115.68 53.2695 115.68C54.0175 115.68 54.6482 115.548 55.1615 115.284C55.6748 115.02 56.1368 114.631 56.5475 114.118L57.8455 115.13ZM56.3715 110.928C56.3422 110.048 56.0562 109.344 55.5135 108.816C54.9708 108.288 54.2228 108.024 53.2695 108.024C52.3162 108.024 51.5462 108.288 50.9595 108.816C50.3728 109.344 50.0208 110.048 49.9035 110.928H56.3715ZM60.8741 109.146C60.8741 108.677 60.8594 108.237 60.8301 107.826C60.8008 107.415 60.7861 107.041 60.7861 106.704H62.4141C62.4141 106.983 62.4214 107.261 62.4361 107.54C62.4508 107.819 62.4581 108.105 62.4581 108.398H62.5021C62.6194 108.149 62.7808 107.907 62.9861 107.672C63.2061 107.437 63.4628 107.232 63.7561 107.056C64.0494 106.865 64.3794 106.719 64.7461 106.616C65.1128 106.499 65.5088 106.44 65.9341 106.44C66.0514 106.44 66.1688 106.447 66.2861 106.462C66.4034 106.477 66.5208 106.506 66.6381 106.55L66.5281 108.288C66.2348 108.2 65.9268 108.156 65.6041 108.156C64.5481 108.156 63.7781 108.501 63.2941 109.19C62.8248 109.865 62.5901 110.796 62.5901 111.984V117H60.8741V109.146ZM68.4765 108.024C69.0045 107.481 69.6278 107.085 70.3465 106.836C71.0798 106.572 71.8205 106.44 72.5685 106.44C74.0938 106.44 75.1938 106.799 75.8685 107.518C76.5431 108.237 76.8805 109.329 76.8805 110.796V115.218C76.8805 115.511 76.8951 115.819 76.9245 116.142C76.9538 116.45 76.9905 116.736 77.0345 117H75.3845C75.3258 116.765 75.2891 116.509 75.2745 116.23C75.2745 115.937 75.2745 115.68 75.2745 115.46H75.2305C74.8931 115.988 74.4385 116.421 73.8665 116.758C73.3091 117.095 72.6345 117.264 71.8425 117.264C71.3145 117.264 70.8158 117.198 70.3465 117.066C69.8918 116.934 69.4885 116.743 69.1365 116.494C68.7991 116.23 68.5278 115.907 68.3225 115.526C68.1171 115.145 68.0145 114.705 68.0145 114.206C68.0145 113.355 68.2345 112.688 68.6745 112.204C69.1145 111.72 69.6571 111.361 70.3025 111.126C70.9625 110.891 71.6665 110.745 72.4145 110.686C73.1771 110.627 73.8738 110.598 74.5045 110.598H75.1645V110.29C75.1645 109.542 74.9371 108.977 74.4825 108.596C74.0425 108.215 73.4191 108.024 72.6125 108.024C72.0551 108.024 71.5051 108.119 70.9625 108.31C70.4345 108.486 69.9651 108.765 69.5545 109.146L68.4765 108.024ZM73.4485 112.05C72.3485 112.05 71.4758 112.204 70.8305 112.512C70.1851 112.82 69.8625 113.326 69.8625 114.03C69.8625 114.675 70.0751 115.137 70.5005 115.416C70.9405 115.68 71.4831 115.812 72.1285 115.812C72.6271 115.812 73.0598 115.731 73.4265 115.57C73.8078 115.394 74.1231 115.167 74.3725 114.888C74.6218 114.609 74.8125 114.287 74.9445 113.92C75.0765 113.539 75.1498 113.135 75.1645 112.71V112.05H73.4485ZM90.2907 116.538C90.2907 118.415 89.8067 119.838 88.8387 120.806C87.8853 121.789 86.4993 122.28 84.6807 122.28C83.6687 122.28 82.752 122.133 81.9307 121.84C81.124 121.547 80.354 121.041 79.6207 120.322L80.8527 118.914C81.3953 119.501 81.9673 119.941 82.5687 120.234C83.1847 120.542 83.8887 120.696 84.6807 120.696C85.4433 120.696 86.074 120.579 86.5727 120.344C87.086 120.124 87.4893 119.816 87.7827 119.42C88.076 119.039 88.2813 118.599 88.3987 118.1C88.516 117.601 88.5747 117.081 88.5747 116.538V115.218H88.5307C88.12 115.878 87.5847 116.362 86.9247 116.67C86.2647 116.978 85.59 117.132 84.9007 117.132C84.094 117.132 83.3533 117 82.6787 116.736C82.004 116.472 81.4247 116.105 80.9407 115.636C80.4567 115.167 80.0827 114.609 79.8187 113.964C79.5547 113.319 79.4227 112.615 79.4227 111.852C79.4227 111.016 79.5547 110.261 79.8187 109.586C80.0827 108.911 80.4493 108.347 80.9187 107.892C81.4027 107.423 81.982 107.063 82.6567 106.814C83.3313 106.565 84.0793 106.44 84.9007 106.44C85.2527 106.44 85.6047 106.484 85.9567 106.572C86.3087 106.645 86.646 106.77 86.9687 106.946C87.306 107.107 87.6067 107.32 87.8707 107.584C88.1347 107.833 88.3547 108.127 88.5307 108.464H88.5747V106.704H90.2907V116.538ZM81.2707 111.852C81.2707 112.38 81.366 112.871 81.5567 113.326C81.7473 113.766 82.004 114.155 82.3267 114.492C82.664 114.815 83.0527 115.071 83.4927 115.262C83.9327 115.453 84.402 115.548 84.9007 115.548C85.4873 115.548 86.008 115.445 86.4627 115.24C86.9173 115.035 87.2987 114.763 87.6067 114.426C87.9293 114.074 88.1713 113.678 88.3327 113.238C88.494 112.783 88.5747 112.307 88.5747 111.808C88.5747 111.251 88.4867 110.745 88.3107 110.29C88.1347 109.821 87.8853 109.417 87.5627 109.08C87.24 108.743 86.8513 108.486 86.3967 108.31C85.942 108.119 85.4433 108.024 84.9007 108.024C84.358 108.024 83.8593 108.127 83.4047 108.332C82.9647 108.523 82.5833 108.794 82.2607 109.146C81.9527 109.483 81.7107 109.887 81.5347 110.356C81.3587 110.811 81.2707 111.309 81.2707 111.852ZM102.662 115.13C102.046 115.922 101.371 116.479 100.638 116.802C99.9046 117.11 99.0539 117.264 98.0859 117.264C97.2792 117.264 96.5532 117.125 95.9079 116.846C95.2626 116.553 94.7126 116.164 94.2579 115.68C93.8179 115.196 93.4732 114.624 93.2239 113.964C92.9892 113.304 92.8719 112.6 92.8719 111.852C92.8719 111.06 93.0039 110.334 93.2679 109.674C93.5319 108.999 93.8986 108.427 94.3679 107.958C94.8372 107.474 95.3946 107.1 96.0399 106.836C96.6852 106.572 97.3892 106.44 98.1519 106.44C98.8706 106.44 99.5306 106.565 100.132 106.814C100.733 107.049 101.247 107.401 101.672 107.87C102.112 108.325 102.449 108.889 102.684 109.564C102.919 110.224 103.036 110.979 103.036 111.83V112.38H94.7199C94.7492 112.82 94.8519 113.245 95.0279 113.656C95.2186 114.052 95.4606 114.404 95.7539 114.712C96.0472 115.005 96.3919 115.24 96.7879 115.416C97.1839 115.592 97.6166 115.68 98.0859 115.68C98.8339 115.68 99.4646 115.548 99.9779 115.284C100.491 115.02 100.953 114.631 101.364 114.118L102.662 115.13ZM101.188 110.928C101.159 110.048 100.873 109.344 100.33 108.816C99.7872 108.288 99.0392 108.024 98.0859 108.024C97.1326 108.024 96.3626 108.288 95.7759 108.816C95.1892 109.344 94.8372 110.048 94.7199 110.928H101.188ZM111.726 106.704H113.442V108.2H113.486C113.955 107.643 114.498 107.21 115.114 106.902C115.744 106.594 116.434 106.44 117.182 106.44C117.988 106.44 118.722 106.579 119.382 106.858C120.056 107.122 120.628 107.496 121.098 107.98C121.567 108.464 121.934 109.036 122.198 109.696C122.462 110.356 122.594 111.075 122.594 111.852C122.594 112.629 122.462 113.348 122.198 114.008C121.934 114.668 121.567 115.24 121.098 115.724C120.643 116.208 120.1 116.589 119.47 116.868C118.839 117.132 118.164 117.264 117.446 117.264C116.522 117.264 115.708 117.066 115.004 116.67C114.314 116.259 113.808 115.761 113.486 115.174H113.442V122.016H111.726V106.704ZM113.442 111.852C113.442 112.395 113.522 112.901 113.684 113.37C113.86 113.825 114.109 114.228 114.432 114.58C114.754 114.917 115.136 115.189 115.576 115.394C116.03 115.585 116.536 115.68 117.094 115.68C117.651 115.68 118.15 115.585 118.59 115.394C119.044 115.189 119.433 114.917 119.756 114.58C120.078 114.228 120.32 113.825 120.482 113.37C120.658 112.901 120.746 112.395 120.746 111.852C120.746 111.309 120.658 110.811 120.482 110.356C120.32 109.887 120.078 109.483 119.756 109.146C119.433 108.794 119.044 108.523 118.59 108.332C118.15 108.127 117.651 108.024 117.094 108.024C116.536 108.024 116.03 108.127 115.576 108.332C115.136 108.523 114.754 108.794 114.432 109.146C114.109 109.483 113.86 109.887 113.684 110.356C113.522 110.811 113.442 111.309 113.442 111.852ZM125.263 109.146C125.263 108.677 125.248 108.237 125.219 107.826C125.189 107.415 125.175 107.041 125.175 106.704H126.803C126.803 106.983 126.81 107.261 126.825 107.54C126.839 107.819 126.847 108.105 126.847 108.398H126.891C127.008 108.149 127.169 107.907 127.375 107.672C127.595 107.437 127.851 107.232 128.145 107.056C128.438 106.865 128.768 106.719 129.135 106.616C129.501 106.499 129.897 106.44 130.323 106.44C130.44 106.44 130.557 106.447 130.675 106.462C130.792 106.477 130.909 106.506 131.027 106.55L130.917 108.288C130.623 108.2 130.315 108.156 129.993 108.156C128.937 108.156 128.167 108.501 127.683 109.19C127.213 109.865 126.979 110.796 126.979 111.984V117H125.263V109.146ZM132.016 111.852C132.016 111.045 132.156 110.312 132.434 109.652C132.713 108.992 133.094 108.427 133.578 107.958C134.062 107.474 134.642 107.1 135.316 106.836C135.991 106.572 136.724 106.44 137.516 106.44C138.308 106.44 139.042 106.572 139.716 106.836C140.391 107.1 140.97 107.474 141.454 107.958C141.938 108.427 142.32 108.992 142.598 109.652C142.877 110.312 143.016 111.045 143.016 111.852C143.016 112.659 142.877 113.392 142.598 114.052C142.32 114.712 141.938 115.284 141.454 115.768C140.97 116.237 140.391 116.604 139.716 116.868C139.042 117.132 138.308 117.264 137.516 117.264C136.724 117.264 135.991 117.132 135.316 116.868C134.642 116.604 134.062 116.237 133.578 115.768C133.094 115.284 132.713 114.712 132.434 114.052C132.156 113.392 132.016 112.659 132.016 111.852ZM133.864 111.852C133.864 112.395 133.945 112.901 134.106 113.37C134.282 113.825 134.532 114.228 134.854 114.58C135.177 114.917 135.558 115.189 135.998 115.394C136.453 115.585 136.959 115.68 137.516 115.68C138.074 115.68 138.572 115.585 139.012 115.394C139.467 115.189 139.856 114.917 140.178 114.58C140.501 114.228 140.743 113.825 140.904 113.37C141.08 112.901 141.168 112.395 141.168 111.852C141.168 111.309 141.08 110.811 140.904 110.356C140.743 109.887 140.501 109.483 140.178 109.146C139.856 108.794 139.467 108.523 139.012 108.332C138.572 108.127 138.074 108.024 137.516 108.024C136.959 108.024 136.453 108.127 135.998 108.332C135.558 108.523 135.177 108.794 134.854 109.146C134.532 109.483 134.282 109.887 134.106 110.356C133.945 110.811 133.864 111.309 133.864 111.852ZM154.231 115.174H154.187C153.864 115.761 153.351 116.259 152.647 116.67C151.958 117.066 151.151 117.264 150.227 117.264C149.508 117.264 148.834 117.132 148.203 116.868C147.572 116.589 147.022 116.208 146.553 115.724C146.098 115.24 145.739 114.668 145.475 114.008C145.211 113.348 145.079 112.629 145.079 111.852C145.079 111.075 145.211 110.356 145.475 109.696C145.739 109.036 146.106 108.464 146.575 107.98C147.044 107.496 147.609 107.122 148.269 106.858C148.944 106.579 149.684 106.44 150.491 106.44C151.239 106.44 151.921 106.594 152.537 106.902C153.168 107.21 153.718 107.643 154.187 108.2H154.231V100.368H155.947V117H154.231V115.174ZM154.231 111.852C154.231 111.309 154.143 110.811 153.967 110.356C153.806 109.887 153.564 109.483 153.241 109.146C152.918 108.794 152.53 108.523 152.075 108.332C151.635 108.127 151.136 108.024 150.579 108.024C150.022 108.024 149.516 108.127 149.061 108.332C148.621 108.523 148.24 108.794 147.917 109.146C147.594 109.483 147.345 109.887 147.169 110.356C147.008 110.811 146.927 111.309 146.927 111.852C146.927 112.395 147.008 112.901 147.169 113.37C147.345 113.825 147.594 114.228 147.917 114.58C148.24 114.917 148.621 115.189 149.061 115.394C149.516 115.585 150.022 115.68 150.579 115.68C151.136 115.68 151.635 115.585 152.075 115.394C152.53 115.189 152.918 114.917 153.241 114.58C153.564 114.228 153.806 113.825 153.967 113.37C154.143 112.901 154.231 112.395 154.231 111.852ZM168.098 114.558C168.098 115.027 168.113 115.467 168.142 115.878C168.171 116.289 168.186 116.663 168.186 117H166.558C166.558 116.721 166.551 116.443 166.536 116.164C166.521 115.885 166.514 115.599 166.514 115.306H166.47C166.353 115.555 166.184 115.797 165.964 116.032C165.759 116.267 165.509 116.479 165.216 116.67C164.923 116.846 164.593 116.985 164.226 117.088C163.859 117.205 163.463 117.264 163.038 117.264C162.363 117.264 161.777 117.161 161.278 116.956C160.794 116.751 160.391 116.465 160.068 116.098C159.745 115.731 159.503 115.291 159.342 114.778C159.195 114.25 159.122 113.678 159.122 113.062V106.704H160.838V112.886C160.838 113.751 161.029 114.433 161.41 114.932C161.791 115.431 162.385 115.68 163.192 115.68C163.749 115.68 164.226 115.585 164.622 115.394C165.033 115.203 165.363 114.932 165.612 114.58C165.876 114.228 166.067 113.81 166.184 113.326C166.316 112.842 166.382 112.307 166.382 111.72V106.704H168.098V114.558ZM178.673 109.278C178.306 108.838 177.91 108.523 177.485 108.332C177.059 108.127 176.59 108.024 176.077 108.024C175.505 108.024 174.999 108.127 174.559 108.332C174.119 108.523 173.752 108.794 173.459 109.146C173.18 109.498 172.967 109.909 172.821 110.378C172.674 110.833 172.601 111.324 172.601 111.852C172.601 112.38 172.681 112.879 172.843 113.348C173.019 113.803 173.253 114.206 173.547 114.558C173.855 114.91 174.221 115.189 174.647 115.394C175.072 115.585 175.549 115.68 176.077 115.68C177.206 115.68 178.079 115.255 178.695 114.404L179.971 115.614C179.472 116.186 178.885 116.604 178.211 116.868C177.536 117.132 176.825 117.264 176.077 117.264C175.285 117.264 174.559 117.132 173.899 116.868C173.239 116.604 172.674 116.23 172.205 115.746C171.75 115.262 171.391 114.69 171.127 114.03C170.877 113.37 170.753 112.644 170.753 111.852C170.753 111.075 170.877 110.356 171.127 109.696C171.391 109.036 171.757 108.464 172.227 107.98C172.696 107.496 173.253 107.122 173.899 106.858C174.559 106.579 175.285 106.44 176.077 106.44C176.839 106.44 177.558 106.572 178.233 106.836C178.922 107.1 179.523 107.511 180.037 108.068L178.673 109.278ZM187.592 108.156H184.556V113.304C184.556 113.641 184.563 113.957 184.578 114.25C184.593 114.529 184.651 114.778 184.754 114.998C184.857 115.203 185.011 115.372 185.216 115.504C185.421 115.621 185.715 115.68 186.096 115.68C186.345 115.68 186.602 115.651 186.866 115.592C187.13 115.533 187.379 115.445 187.614 115.328L187.68 116.89C187.387 117.022 187.057 117.117 186.69 117.176C186.338 117.235 186.001 117.264 185.678 117.264C185.062 117.264 184.571 117.183 184.204 117.022C183.837 116.861 183.551 116.633 183.346 116.34C183.141 116.047 183.001 115.687 182.928 115.262C182.869 114.822 182.84 114.338 182.84 113.81V108.156H180.596V106.704H182.84V103.778H184.556V106.704H187.592V108.156ZM189.87 106.704H191.586V117H189.87V106.704ZM189.474 102.678C189.474 102.341 189.591 102.047 189.826 101.798C190.075 101.549 190.376 101.424 190.728 101.424C191.08 101.424 191.373 101.549 191.608 101.798C191.857 102.047 191.982 102.341 191.982 102.678C191.982 103.045 191.865 103.345 191.63 103.58C191.395 103.815 191.095 103.932 190.728 103.932C190.361 103.932 190.061 103.815 189.826 103.58C189.591 103.345 189.474 103.045 189.474 102.678ZM194.407 111.852C194.407 111.045 194.546 110.312 194.825 109.652C195.104 108.992 195.485 108.427 195.969 107.958C196.453 107.474 197.032 107.1 197.707 106.836C198.382 106.572 199.115 106.44 199.907 106.44C200.699 106.44 201.432 106.572 202.107 106.836C202.782 107.1 203.361 107.474 203.845 107.958C204.329 108.427 204.71 108.992 204.989 109.652C205.268 110.312 205.407 111.045 205.407 111.852C205.407 112.659 205.268 113.392 204.989 114.052C204.71 114.712 204.329 115.284 203.845 115.768C203.361 116.237 202.782 116.604 202.107 116.868C201.432 117.132 200.699 117.264 199.907 117.264C199.115 117.264 198.382 117.132 197.707 116.868C197.032 116.604 196.453 116.237 195.969 115.768C195.485 115.284 195.104 114.712 194.825 114.052C194.546 113.392 194.407 112.659 194.407 111.852ZM196.255 111.852C196.255 112.395 196.336 112.901 196.497 113.37C196.673 113.825 196.922 114.228 197.245 114.58C197.568 114.917 197.949 115.189 198.389 115.394C198.844 115.585 199.35 115.68 199.907 115.68C200.464 115.68 200.963 115.585 201.403 115.394C201.858 115.189 202.246 114.917 202.569 114.58C202.892 114.228 203.134 113.825 203.295 113.37C203.471 112.901 203.559 112.395 203.559 111.852C203.559 111.309 203.471 110.811 203.295 110.356C203.134 109.887 202.892 109.483 202.569 109.146C202.246 108.794 201.858 108.523 201.403 108.332C200.963 108.127 200.464 108.024 199.907 108.024C199.35 108.024 198.844 108.127 198.389 108.332C197.949 108.523 197.568 108.794 197.245 109.146C196.922 109.483 196.673 109.887 196.497 110.356C196.336 110.811 196.255 111.309 196.255 111.852ZM208.064 109.146C208.064 108.677 208.049 108.237 208.02 107.826C207.99 107.415 207.976 107.041 207.976 106.704H209.604C209.604 106.983 209.611 107.261 209.626 107.54C209.64 107.819 209.648 108.105 209.648 108.398H209.692C209.809 108.149 209.97 107.907 210.176 107.672C210.396 107.437 210.652 107.232 210.946 107.056C211.239 106.865 211.569 106.719 211.936 106.616C212.302 106.499 212.698 106.44 213.124 106.44C213.798 106.44 214.378 106.543 214.862 106.748C215.36 106.953 215.771 107.239 216.094 107.606C216.416 107.973 216.651 108.42 216.798 108.948C216.959 109.461 217.04 110.026 217.04 110.642V117H215.324V110.818C215.324 109.953 215.133 109.271 214.752 108.772C214.37 108.273 213.776 108.024 212.97 108.024C212.412 108.024 211.928 108.119 211.518 108.31C211.122 108.501 210.792 108.772 210.528 109.124C210.278 109.476 210.088 109.894 209.956 110.378C209.838 110.862 209.78 111.397 209.78 111.984V117H208.064V109.146ZM233.737 109.278C233.371 108.838 232.975 108.523 232.549 108.332C232.124 108.127 231.655 108.024 231.141 108.024C230.569 108.024 230.063 108.127 229.623 108.332C229.183 108.523 228.817 108.794 228.523 109.146C228.245 109.498 228.032 109.909 227.885 110.378C227.739 110.833 227.665 111.324 227.665 111.852C227.665 112.38 227.746 112.879 227.907 113.348C228.083 113.803 228.318 114.206 228.611 114.558C228.919 114.91 229.286 115.189 229.711 115.394C230.137 115.585 230.613 115.68 231.141 115.68C232.271 115.68 233.143 115.255 233.759 114.404L235.035 115.614C234.537 116.186 233.95 116.604 233.275 116.868C232.601 117.132 231.889 117.264 231.141 117.264C230.349 117.264 229.623 117.132 228.963 116.868C228.303 116.604 227.739 116.23 227.269 115.746C226.815 115.262 226.455 114.69 226.191 114.03C225.942 113.37 225.817 112.644 225.817 111.852C225.817 111.075 225.942 110.356 226.191 109.696C226.455 109.036 226.822 108.464 227.291 107.98C227.761 107.496 228.318 107.122 228.963 106.858C229.623 106.579 230.349 106.44 231.141 106.44C231.904 106.44 232.623 106.572 233.297 106.836C233.987 107.1 234.588 107.511 235.101 108.068L233.737 109.278ZM240.808 119.354C240.632 119.794 240.449 120.19 240.258 120.542C240.082 120.909 239.862 121.217 239.598 121.466C239.349 121.73 239.041 121.928 238.674 122.06C238.322 122.207 237.89 122.28 237.376 122.28C237.127 122.28 236.863 122.265 236.584 122.236C236.32 122.207 236.071 122.133 235.836 122.016L236.056 120.52C236.232 120.593 236.416 120.637 236.606 120.652C236.797 120.681 237.017 120.696 237.266 120.696C237.824 120.696 238.234 120.542 238.498 120.234C238.762 119.926 238.99 119.515 239.18 119.002L239.884 117.066L235.616 106.704H237.618L240.808 114.778H240.852L243.91 106.704H245.78L240.808 119.354ZM254.964 109.278C254.597 108.838 254.201 108.523 253.776 108.332C253.35 108.127 252.881 108.024 252.368 108.024C251.796 108.024 251.29 108.127 250.85 108.332C250.41 108.523 250.043 108.794 249.75 109.146C249.471 109.498 249.258 109.909 249.112 110.378C248.965 110.833 248.892 111.324 248.892 111.852C248.892 112.38 248.972 112.879 249.134 113.348C249.31 113.803 249.544 114.206 249.838 114.558C250.146 114.91 250.512 115.189 250.938 115.394C251.363 115.585 251.84 115.68 252.368 115.68C253.497 115.68 254.37 115.255 254.986 114.404L256.262 115.614C255.763 116.186 255.176 116.604 254.502 116.868C253.827 117.132 253.116 117.264 252.368 117.264C251.576 117.264 250.85 117.132 250.19 116.868C249.53 116.604 248.965 116.23 248.496 115.746C248.041 115.262 247.682 114.69 247.418 114.03C247.168 113.37 247.044 112.644 247.044 111.852C247.044 111.075 247.168 110.356 247.418 109.696C247.682 109.036 248.048 108.464 248.518 107.98C248.987 107.496 249.544 107.122 250.19 106.858C250.85 106.579 251.576 106.44 252.368 106.44C253.13 106.44 253.849 106.572 254.524 106.836C255.213 107.1 255.814 107.511 256.328 108.068L254.964 109.278ZM258.405 100.368H260.121V117H258.405V100.368ZM272.732 115.13C272.116 115.922 271.442 116.479 270.708 116.802C269.975 117.11 269.124 117.264 268.156 117.264C267.35 117.264 266.624 117.125 265.978 116.846C265.333 116.553 264.783 116.164 264.328 115.68C263.888 115.196 263.544 114.624 263.294 113.964C263.06 113.304 262.942 112.6 262.942 111.852C262.942 111.06 263.074 110.334 263.338 109.674C263.602 108.999 263.969 108.427 264.438 107.958C264.908 107.474 265.465 107.1 266.11 106.836C266.756 106.572 267.46 106.44 268.222 106.44C268.941 106.44 269.601 106.565 270.202 106.814C270.804 107.049 271.317 107.401 271.742 107.87C272.182 108.325 272.52 108.889 272.754 109.564C272.989 110.224 273.106 110.979 273.106 111.83V112.38H264.79C264.82 112.82 264.922 113.245 265.098 113.656C265.289 114.052 265.531 114.404 265.824 114.712C266.118 115.005 266.462 115.24 266.858 115.416C267.254 115.592 267.687 115.68 268.156 115.68C268.904 115.68 269.535 115.548 270.048 115.284C270.562 115.02 271.024 114.631 271.434 114.118L272.732 115.13ZM271.258 110.928C271.229 110.048 270.943 109.344 270.4 108.816C269.858 108.288 269.11 108.024 268.156 108.024C267.203 108.024 266.433 108.288 265.846 108.816C265.26 109.344 264.908 110.048 264.79 110.928H271.258ZM275.981 114.294C276.318 114.719 276.685 115.057 277.081 115.306C277.491 115.555 278.005 115.68 278.621 115.68C278.885 115.68 279.149 115.651 279.413 115.592C279.691 115.533 279.941 115.438 280.161 115.306C280.381 115.174 280.557 115.013 280.689 114.822C280.821 114.617 280.887 114.375 280.887 114.096C280.887 113.817 280.821 113.59 280.689 113.414C280.571 113.238 280.41 113.091 280.205 112.974C279.999 112.842 279.765 112.739 279.501 112.666C279.237 112.593 278.965 112.527 278.687 112.468C278.203 112.365 277.741 112.248 277.301 112.116C276.861 111.984 276.472 111.815 276.135 111.61C275.812 111.39 275.548 111.111 275.343 110.774C275.152 110.437 275.057 110.004 275.057 109.476C275.057 108.977 275.167 108.537 275.387 108.156C275.607 107.775 275.9 107.459 276.267 107.21C276.633 106.961 277.044 106.77 277.499 106.638C277.953 106.506 278.423 106.44 278.907 106.44C279.64 106.44 280.315 106.587 280.931 106.88C281.561 107.173 282.053 107.65 282.405 108.31L280.975 109.256C280.755 108.889 280.461 108.596 280.095 108.376C279.743 108.141 279.31 108.024 278.797 108.024C278.562 108.024 278.32 108.053 278.071 108.112C277.836 108.171 277.623 108.259 277.433 108.376C277.242 108.493 277.081 108.647 276.949 108.838C276.831 109.014 276.773 109.219 276.773 109.454C276.773 109.674 276.839 109.865 276.971 110.026C277.117 110.173 277.308 110.305 277.543 110.422C277.792 110.539 278.071 110.642 278.379 110.73C278.701 110.818 279.031 110.891 279.369 110.95C279.823 111.038 280.256 111.155 280.667 111.302C281.077 111.434 281.437 111.617 281.745 111.852C282.053 112.087 282.295 112.38 282.471 112.732C282.647 113.084 282.735 113.517 282.735 114.03C282.735 114.617 282.617 115.115 282.383 115.526C282.148 115.937 281.833 116.274 281.437 116.538C281.055 116.787 280.615 116.971 280.117 117.088C279.633 117.205 279.134 117.264 278.621 117.264C277.741 117.264 276.978 117.132 276.333 116.868C275.702 116.589 275.13 116.083 274.617 115.35L275.981 114.294ZM291.119 108.024C291.647 107.481 292.27 107.085 292.989 106.836C293.722 106.572 294.463 106.44 295.211 106.44C296.736 106.44 297.836 106.799 298.511 107.518C299.186 108.237 299.523 109.329 299.523 110.796V115.218C299.523 115.511 299.538 115.819 299.567 116.142C299.596 116.45 299.633 116.736 299.677 117H298.027C297.968 116.765 297.932 116.509 297.917 116.23C297.917 115.937 297.917 115.68 297.917 115.46H297.873C297.536 115.988 297.081 116.421 296.509 116.758C295.952 117.095 295.277 117.264 294.485 117.264C293.957 117.264 293.458 117.198 292.989 117.066C292.534 116.934 292.131 116.743 291.779 116.494C291.442 116.23 291.17 115.907 290.965 115.526C290.76 115.145 290.657 114.705 290.657 114.206C290.657 113.355 290.877 112.688 291.317 112.204C291.757 111.72 292.3 111.361 292.945 111.126C293.605 110.891 294.309 110.745 295.057 110.686C295.82 110.627 296.516 110.598 297.147 110.598H297.807V110.29C297.807 109.542 297.58 108.977 297.125 108.596C296.685 108.215 296.062 108.024 295.255 108.024C294.698 108.024 294.148 108.119 293.605 108.31C293.077 108.486 292.608 108.765 292.197 109.146L291.119 108.024ZM296.091 112.05C294.991 112.05 294.118 112.204 293.473 112.512C292.828 112.82 292.505 113.326 292.505 114.03C292.505 114.675 292.718 115.137 293.143 115.416C293.583 115.68 294.126 115.812 294.771 115.812C295.27 115.812 295.702 115.731 296.069 115.57C296.45 115.394 296.766 115.167 297.015 114.888C297.264 114.609 297.455 114.287 297.587 113.92C297.719 113.539 297.792 113.135 297.807 112.71V112.05H296.091ZM302.659 109.146C302.659 108.677 302.645 108.237 302.615 107.826C302.586 107.415 302.571 107.041 302.571 106.704H304.199C304.199 106.983 304.207 107.261 304.221 107.54C304.236 107.819 304.243 108.105 304.243 108.398H304.287C304.405 108.149 304.566 107.907 304.771 107.672C304.991 107.437 305.248 107.232 305.541 107.056C305.835 106.865 306.165 106.719 306.531 106.616C306.898 106.499 307.294 106.44 307.719 106.44C307.837 106.44 307.954 106.447 308.071 106.462C308.189 106.477 308.306 106.506 308.423 106.55L308.313 108.288C308.02 108.2 307.712 108.156 307.389 108.156C306.333 108.156 305.563 108.501 305.079 109.19C304.61 109.865 304.375 110.796 304.375 111.984V117H302.659V109.146ZM319.203 115.13C318.587 115.922 317.912 116.479 317.179 116.802C316.446 117.11 315.595 117.264 314.627 117.264C313.82 117.264 313.094 117.125 312.449 116.846C311.804 116.553 311.254 116.164 310.799 115.68C310.359 115.196 310.014 114.624 309.765 113.964C309.53 113.304 309.413 112.6 309.413 111.852C309.413 111.06 309.545 110.334 309.809 109.674C310.073 108.999 310.44 108.427 310.909 107.958C311.378 107.474 311.936 107.1 312.581 106.836C313.226 106.572 313.93 106.44 314.693 106.44C315.412 106.44 316.072 106.565 316.673 106.814C317.274 107.049 317.788 107.401 318.213 107.87C318.653 108.325 318.99 108.889 319.225 109.564C319.46 110.224 319.577 110.979 319.577 111.83V112.38H311.261C311.29 112.82 311.393 113.245 311.569 113.656C311.76 114.052 312.002 114.404 312.295 114.712C312.588 115.005 312.933 115.24 313.329 115.416C313.725 115.592 314.158 115.68 314.627 115.68C315.375 115.68 316.006 115.548 316.519 115.284C317.032 115.02 317.494 114.631 317.905 114.118L319.203 115.13ZM317.729 110.928C317.7 110.048 317.414 109.344 316.871 108.816C316.328 108.288 315.58 108.024 314.627 108.024C313.674 108.024 312.904 108.288 312.317 108.816C311.73 109.344 311.378 110.048 311.261 110.928H317.729ZM334.647 117H332.799V103.8H332.755L329.961 106.154L328.861 104.812L333.041 101.424H334.647V117ZM339.919 110.928H345.309V112.512H339.919V110.928ZM350.765 108.024H351.337C351.719 108.024 352.115 107.995 352.525 107.936C352.951 107.877 353.332 107.753 353.669 107.562C354.021 107.371 354.307 107.1 354.527 106.748C354.762 106.381 354.879 105.905 354.879 105.318C354.879 104.526 354.63 103.903 354.131 103.448C353.647 102.979 353.009 102.744 352.217 102.744C351.557 102.744 350.985 102.891 350.501 103.184C350.017 103.477 349.636 103.91 349.357 104.482L347.575 103.8C347.957 102.92 348.551 102.26 349.357 101.82C350.179 101.38 351.088 101.16 352.085 101.16C352.701 101.16 353.288 101.248 353.845 101.424C354.417 101.6 354.916 101.857 355.341 102.194C355.767 102.531 356.104 102.957 356.353 103.47C356.603 103.969 356.727 104.555 356.727 105.23C356.727 106.051 356.478 106.792 355.979 107.452C355.495 108.097 354.857 108.545 354.065 108.794V108.838C354.564 108.926 355.004 109.087 355.385 109.322C355.781 109.557 356.119 109.85 356.397 110.202C356.676 110.539 356.889 110.928 357.035 111.368C357.182 111.808 357.255 112.27 357.255 112.754C357.255 113.502 357.116 114.155 356.837 114.712C356.559 115.269 356.185 115.739 355.715 116.12C355.246 116.501 354.696 116.787 354.065 116.978C353.449 117.169 352.797 117.264 352.107 117.264C350.919 117.264 349.885 117.007 349.005 116.494C348.125 115.981 347.487 115.145 347.091 113.986L348.961 113.37C349.225 114.206 349.599 114.8 350.083 115.152C350.567 115.504 351.242 115.68 352.107 115.68C352.547 115.68 352.958 115.607 353.339 115.46C353.721 115.313 354.051 115.108 354.329 114.844C354.623 114.565 354.85 114.243 355.011 113.876C355.187 113.495 355.275 113.077 355.275 112.622C355.275 112.05 355.158 111.573 354.923 111.192C354.703 110.796 354.403 110.488 354.021 110.268C353.655 110.033 353.237 109.865 352.767 109.762C352.298 109.659 351.821 109.608 351.337 109.608H350.765V108.024ZM366.253 109.146C366.253 108.677 366.238 108.237 366.209 107.826C366.18 107.415 366.165 107.041 366.165 106.704H367.793C367.793 106.983 367.8 107.261 367.815 107.54C367.83 107.819 367.837 108.105 367.837 108.398H367.881C367.998 108.149 368.16 107.907 368.365 107.672C368.585 107.437 368.842 107.232 369.135 107.056C369.428 106.865 369.758 106.719 370.125 106.616C370.492 106.499 370.888 106.44 371.313 106.44C371.87 106.44 372.332 106.513 372.699 106.66C373.08 106.792 373.396 106.961 373.645 107.166C373.894 107.357 374.085 107.569 374.217 107.804C374.364 108.024 374.481 108.222 374.569 108.398C374.95 107.782 375.39 107.305 375.889 106.968C376.388 106.616 377.033 106.44 377.825 106.44C378.558 106.44 379.174 106.543 379.673 106.748C380.172 106.939 380.575 107.225 380.883 107.606C381.191 107.973 381.411 108.427 381.543 108.97C381.675 109.498 381.741 110.092 381.741 110.752V117H380.025V110.84C380.025 110.488 379.988 110.143 379.915 109.806C379.842 109.469 379.71 109.168 379.519 108.904C379.328 108.64 379.072 108.427 378.749 108.266C378.426 108.105 378.016 108.024 377.517 108.024C377.15 108.024 376.806 108.097 376.483 108.244C376.16 108.391 375.874 108.596 375.625 108.86C375.39 109.124 375.2 109.447 375.053 109.828C374.921 110.195 374.855 110.605 374.855 111.06V117H373.139V111.17C373.139 110.026 372.985 109.219 372.677 108.75C372.369 108.266 371.863 108.024 371.159 108.024C370.602 108.024 370.118 108.119 369.707 108.31C369.311 108.501 368.981 108.772 368.717 109.124C368.468 109.476 368.277 109.894 368.145 110.378C368.028 110.862 367.969 111.397 367.969 111.984V117H366.253V109.146ZM384.393 111.852C384.393 111.045 384.533 110.312 384.811 109.652C385.09 108.992 385.471 108.427 385.955 107.958C386.439 107.474 387.019 107.1 387.693 106.836C388.368 106.572 389.101 106.44 389.893 106.44C390.685 106.44 391.419 106.572 392.093 106.836C392.768 107.1 393.347 107.474 393.831 107.958C394.315 108.427 394.697 108.992 394.975 109.652C395.254 110.312 395.393 111.045 395.393 111.852C395.393 112.659 395.254 113.392 394.975 114.052C394.697 114.712 394.315 115.284 393.831 115.768C393.347 116.237 392.768 116.604 392.093 116.868C391.419 117.132 390.685 117.264 389.893 117.264C389.101 117.264 388.368 117.132 387.693 116.868C387.019 116.604 386.439 116.237 385.955 115.768C385.471 115.284 385.09 114.712 384.811 114.052C384.533 113.392 384.393 112.659 384.393 111.852ZM386.241 111.852C386.241 112.395 386.322 112.901 386.483 113.37C386.659 113.825 386.909 114.228 387.231 114.58C387.554 114.917 387.935 115.189 388.375 115.394C388.83 115.585 389.336 115.68 389.893 115.68C390.451 115.68 390.949 115.585 391.389 115.394C391.844 115.189 392.233 114.917 392.555 114.58C392.878 114.228 393.12 113.825 393.281 113.37C393.457 112.901 393.545 112.395 393.545 111.852C393.545 111.309 393.457 110.811 393.281 110.356C393.12 109.887 392.878 109.483 392.555 109.146C392.233 108.794 391.844 108.523 391.389 108.332C390.949 108.127 390.451 108.024 389.893 108.024C389.336 108.024 388.83 108.127 388.375 108.332C387.935 108.523 387.554 108.794 387.231 109.146C386.909 109.483 386.659 109.887 386.483 110.356C386.322 110.811 386.241 111.309 386.241 111.852ZM398.05 109.146C398.05 108.677 398.035 108.237 398.006 107.826C397.977 107.415 397.962 107.041 397.962 106.704H399.59C399.59 106.983 399.597 107.261 399.612 107.54C399.627 107.819 399.634 108.105 399.634 108.398H399.678C399.795 108.149 399.957 107.907 400.162 107.672C400.382 107.437 400.639 107.232 400.932 107.056C401.225 106.865 401.555 106.719 401.922 106.616C402.289 106.499 402.685 106.44 403.11 106.44C403.785 106.44 404.364 106.543 404.848 106.748C405.347 106.953 405.757 107.239 406.08 107.606C406.403 107.973 406.637 108.42 406.784 108.948C406.945 109.461 407.026 110.026 407.026 110.642V117H405.31V110.818C405.31 109.953 405.119 109.271 404.738 108.772C404.357 108.273 403.763 108.024 402.956 108.024C402.399 108.024 401.915 108.119 401.504 108.31C401.108 108.501 400.778 108.772 400.514 109.124C400.265 109.476 400.074 109.894 399.942 110.378C399.825 110.862 399.766 111.397 399.766 111.984V117H398.05V109.146ZM415.906 108.156H412.87V113.304C412.87 113.641 412.878 113.957 412.892 114.25C412.907 114.529 412.966 114.778 413.068 114.998C413.171 115.203 413.325 115.372 413.53 115.504C413.736 115.621 414.029 115.68 414.41 115.68C414.66 115.68 414.916 115.651 415.18 115.592C415.444 115.533 415.694 115.445 415.928 115.328L415.994 116.89C415.701 117.022 415.371 117.117 415.004 117.176C414.652 117.235 414.315 117.264 413.992 117.264C413.376 117.264 412.885 117.183 412.518 117.022C412.152 116.861 411.866 116.633 411.66 116.34C411.455 116.047 411.316 115.687 411.242 115.262C411.184 114.822 411.154 114.338 411.154 113.81V108.156H408.91V106.704H411.154V103.778H412.87V106.704H415.906V108.156ZM418.03 100.368H419.746V108.134H419.79C419.908 107.929 420.069 107.731 420.274 107.54C420.48 107.335 420.722 107.151 421 106.99C421.294 106.829 421.616 106.697 421.968 106.594C422.32 106.491 422.694 106.44 423.09 106.44C423.765 106.44 424.344 106.543 424.828 106.748C425.327 106.953 425.738 107.239 426.06 107.606C426.383 107.973 426.618 108.42 426.764 108.948C426.926 109.461 427.006 110.026 427.006 110.642V117H425.29V110.818C425.29 109.953 425.1 109.271 424.718 108.772C424.337 108.273 423.743 108.024 422.936 108.024C422.379 108.024 421.895 108.119 421.484 108.31C421.088 108.501 420.758 108.772 420.494 109.124C420.245 109.476 420.054 109.894 419.922 110.378C419.805 110.862 419.746 111.397 419.746 111.984V117H418.03V100.368ZM430.475 114.294C430.812 114.719 431.179 115.057 431.575 115.306C431.986 115.555 432.499 115.68 433.115 115.68C433.379 115.68 433.643 115.651 433.907 115.592C434.186 115.533 434.435 115.438 434.655 115.306C434.875 115.174 435.051 115.013 435.183 114.822C435.315 114.617 435.381 114.375 435.381 114.096C435.381 113.817 435.315 113.59 435.183 113.414C435.066 113.238 434.904 113.091 434.699 112.974C434.494 112.842 434.259 112.739 433.995 112.666C433.731 112.593 433.46 112.527 433.181 112.468C432.697 112.365 432.235 112.248 431.795 112.116C431.355 111.984 430.966 111.815 430.629 111.61C430.306 111.39 430.042 111.111 429.837 110.774C429.646 110.437 429.551 110.004 429.551 109.476C429.551 108.977 429.661 108.537 429.881 108.156C430.101 107.775 430.394 107.459 430.761 107.21C431.128 106.961 431.538 106.77 431.993 106.638C432.448 106.506 432.917 106.44 433.401 106.44C434.134 106.44 434.809 106.587 435.425 106.88C436.056 107.173 436.547 107.65 436.899 108.31L435.469 109.256C435.249 108.889 434.956 108.596 434.589 108.376C434.237 108.141 433.804 108.024 433.291 108.024C433.056 108.024 432.814 108.053 432.565 108.112C432.33 108.171 432.118 108.259 431.927 108.376C431.736 108.493 431.575 108.647 431.443 108.838C431.326 109.014 431.267 109.219 431.267 109.454C431.267 109.674 431.333 109.865 431.465 110.026C431.612 110.173 431.802 110.305 432.037 110.422C432.286 110.539 432.565 110.642 432.873 110.73C433.196 110.818 433.526 110.891 433.863 110.95C434.318 111.038 434.75 111.155 435.161 111.302C435.572 111.434 435.931 111.617 436.239 111.852C436.547 112.087 436.789 112.38 436.965 112.732C437.141 113.084 437.229 113.517 437.229 114.03C437.229 114.617 437.112 115.115 436.877 115.526C436.642 115.937 436.327 116.274 435.931 116.538C435.55 116.787 435.11 116.971 434.611 117.088C434.127 117.205 433.628 117.264 433.115 117.264C432.235 117.264 431.472 117.132 430.827 116.868C430.196 116.589 429.624 116.083 429.111 115.35L430.475 114.294ZM440.832 120.036H439.138L440.634 114.756H442.636L440.832 120.036ZM37.672 153H35.978L33.052 145.08H33.008L30.412 153H28.652L25.308 142.704H27.2L29.554 150.624H29.598L32.26 142.704H34.064L36.77 150.624H36.814L39.146 142.704H40.994L37.672 153ZM52.1306 151.13C51.5146 151.922 50.84 152.479 50.1066 152.802C49.3733 153.11 48.5226 153.264 47.5546 153.264C46.748 153.264 46.022 153.125 45.3766 152.846C44.7313 152.553 44.1813 152.164 43.7266 151.68C43.2866 151.196 42.942 150.624 42.6926 149.964C42.458 149.304 42.3406 148.6 42.3406 147.852C42.3406 147.06 42.4726 146.334 42.7366 145.674C43.0006 144.999 43.3673 144.427 43.8366 143.958C44.306 143.474 44.8633 143.1 45.5086 142.836C46.154 142.572 46.858 142.44 47.6206 142.44C48.3393 142.44 48.9993 142.565 49.6006 142.814C50.202 143.049 50.7153 143.401 51.1406 143.87C51.5806 144.325 51.918 144.889 52.1526 145.564C52.3873 146.224 52.5046 146.979 52.5046 147.83V148.38H44.1886C44.218 148.82 44.3206 149.245 44.4966 149.656C44.6873 150.052 44.9293 150.404 45.2226 150.712C45.516 151.005 45.8606 151.24 46.2566 151.416C46.6526 151.592 47.0853 151.68 47.5546 151.68C48.3026 151.68 48.9333 151.548 49.4466 151.284C49.96 151.02 50.422 150.631 50.8326 150.118L52.1306 151.13ZM50.6566 146.928C50.6273 146.048 50.3413 145.344 49.7986 144.816C49.256 144.288 48.508 144.024 47.5546 144.024C46.6013 144.024 45.8313 144.288 45.2446 144.816C44.658 145.344 44.306 146.048 44.1886 146.928H50.6566ZM66.9143 144.156H63.8783V149.304C63.8783 149.641 63.8856 149.957 63.9003 150.25C63.915 150.529 63.9736 150.778 64.0763 150.998C64.179 151.203 64.333 151.372 64.5383 151.504C64.7436 151.621 65.037 151.68 65.4183 151.68C65.6676 151.68 65.9243 151.651 66.1883 151.592C66.4523 151.533 66.7016 151.445 66.9363 151.328L67.0023 152.89C66.709 153.022 66.379 153.117 66.0123 153.176C65.6603 153.235 65.323 153.264 65.0003 153.264C64.3843 153.264 63.893 153.183 63.5263 153.022C63.1596 152.861 62.8736 152.633 62.6683 152.34C62.463 152.047 62.3236 151.687 62.2503 151.262C62.1916 150.822 62.1623 150.338 62.1623 149.81V144.156H59.9183V142.704H62.1623V139.778H63.8783V142.704H66.9143V144.156ZM68.8847 144.024C69.4127 143.481 70.036 143.085 70.7547 142.836C71.488 142.572 72.2287 142.44 72.9767 142.44C74.502 142.44 75.602 142.799 76.2767 143.518C76.9513 144.237 77.2887 145.329 77.2887 146.796V151.218C77.2887 151.511 77.3033 151.819 77.3327 152.142C77.362 152.45 77.3987 152.736 77.4427 153H75.7927C75.734 152.765 75.6973 152.509 75.6827 152.23C75.6827 151.937 75.6827 151.68 75.6827 151.46H75.6387C75.3013 151.988 74.8467 152.421 74.2747 152.758C73.7173 153.095 73.0427 153.264 72.2507 153.264C71.7227 153.264 71.224 153.198 70.7547 153.066C70.3 152.934 69.8967 152.743 69.5447 152.494C69.2073 152.23 68.936 151.907 68.7307 151.526C68.5253 151.145 68.4227 150.705 68.4227 150.206C68.4227 149.355 68.6427 148.688 69.0827 148.204C69.5227 147.72 70.0653 147.361 70.7107 147.126C71.3707 146.891 72.0747 146.745 72.8227 146.686C73.5853 146.627 74.282 146.598 74.9127 146.598H75.5727V146.29C75.5727 145.542 75.3453 144.977 74.8907 144.596C74.4507 144.215 73.8273 144.024 73.0207 144.024C72.4633 144.024 71.9133 144.119 71.3707 144.31C70.8427 144.486 70.3733 144.765 69.9627 145.146L68.8847 144.024ZM73.8567 148.05C72.7567 148.05 71.884 148.204 71.2387 148.512C70.5933 148.82 70.2707 149.326 70.2707 150.03C70.2707 150.675 70.4833 151.137 70.9087 151.416C71.3487 151.68 71.8913 151.812 72.5367 151.812C73.0353 151.812 73.468 151.731 73.8347 151.57C74.216 151.394 74.5313 151.167 74.7807 150.888C75.03 150.609 75.2207 150.287 75.3527 149.92C75.4847 149.539 75.558 149.135 75.5727 148.71V148.05H73.8567ZM80.4249 136.368H82.1409V147.236L86.8269 142.704H89.2689L84.2969 147.39L89.7749 153H87.2449L82.1409 147.588V153H80.4249V136.368ZM100.621 151.13C100.005 151.922 99.3302 152.479 98.5969 152.802C97.8635 153.11 97.0129 153.264 96.0449 153.264C95.2382 153.264 94.5122 153.125 93.8669 152.846C93.2215 152.553 92.6715 152.164 92.2169 151.68C91.7769 151.196 91.4322 150.624 91.1829 149.964C90.9482 149.304 90.8309 148.6 90.8309 147.852C90.8309 147.06 90.9629 146.334 91.2269 145.674C91.4909 144.999 91.8575 144.427 92.3269 143.958C92.7962 143.474 93.3535 143.1 93.9989 142.836C94.6442 142.572 95.3482 142.44 96.1109 142.44C96.8295 142.44 97.4895 142.565 98.0909 142.814C98.6922 143.049 99.2055 143.401 99.6309 143.87C100.071 144.325 100.408 144.889 100.643 145.564C100.878 146.224 100.995 146.979 100.995 147.83V148.38H92.6789C92.7082 148.82 92.8109 149.245 92.9869 149.656C93.1775 150.052 93.4195 150.404 93.7129 150.712C94.0062 151.005 94.3509 151.24 94.7469 151.416C95.1429 151.592 95.5755 151.68 96.0449 151.68C96.7929 151.68 97.4235 151.548 97.9369 151.284C98.4502 151.02 98.9122 150.631 99.3229 150.118L100.621 151.13ZM99.1469 146.928C99.1175 146.048 98.8315 145.344 98.2889 144.816C97.7462 144.288 96.9982 144.024 96.0449 144.024C95.0915 144.024 94.3215 144.288 93.7349 144.816C93.1482 145.344 92.7962 146.048 92.6789 146.928H99.1469ZM116.065 153H114.217V139.8H114.173L111.379 142.154L110.279 140.812L114.459 137.424H116.065V153ZM124.857 143.914L124.901 143.958C125.194 143.797 125.532 143.679 125.913 143.606C126.309 143.533 126.668 143.496 126.991 143.496C127.666 143.496 128.289 143.613 128.861 143.848C129.448 144.083 129.946 144.42 130.357 144.86C130.782 145.285 131.112 145.799 131.347 146.4C131.582 147.001 131.699 147.661 131.699 148.38C131.699 149.143 131.567 149.825 131.303 150.426C131.039 151.027 130.672 151.541 130.203 151.966C129.734 152.377 129.176 152.699 128.531 152.934C127.9 153.154 127.218 153.264 126.485 153.264C125.752 153.264 125.062 153.154 124.417 152.934C123.786 152.699 123.236 152.377 122.767 151.966C122.298 151.541 121.931 151.027 121.667 150.426C121.403 149.825 121.271 149.143 121.271 148.38C121.271 147.485 121.41 146.701 121.689 146.026C121.968 145.351 122.32 144.677 122.745 144.002L126.881 137.424H129.037L124.857 143.914ZM126.485 145.08C126.016 145.08 125.576 145.161 125.165 145.322C124.754 145.469 124.395 145.689 124.087 145.982C123.794 146.261 123.559 146.605 123.383 147.016C123.207 147.427 123.119 147.881 123.119 148.38C123.119 148.893 123.207 149.355 123.383 149.766C123.559 150.162 123.794 150.507 124.087 150.8C124.395 151.079 124.754 151.299 125.165 151.46C125.576 151.607 126.016 151.68 126.485 151.68C126.954 151.68 127.394 151.607 127.805 151.46C128.216 151.299 128.568 151.079 128.861 150.8C129.169 150.507 129.411 150.162 129.587 149.766C129.763 149.355 129.851 148.893 129.851 148.38C129.851 147.881 129.763 147.427 129.587 147.016C129.411 146.605 129.169 146.261 128.861 145.982C128.568 145.689 128.216 145.469 127.805 145.322C127.394 145.161 126.954 145.08 126.485 145.08ZM133.562 146.928H138.952V148.512H133.562V146.928ZM144.408 144.024H144.98C145.361 144.024 145.757 143.995 146.168 143.936C146.593 143.877 146.975 143.753 147.312 143.562C147.664 143.371 147.95 143.1 148.17 142.748C148.405 142.381 148.522 141.905 148.522 141.318C148.522 140.526 148.273 139.903 147.774 139.448C147.29 138.979 146.652 138.744 145.86 138.744C145.2 138.744 144.628 138.891 144.144 139.184C143.66 139.477 143.279 139.91 143 140.482L141.218 139.8C141.599 138.92 142.193 138.26 143 137.82C143.821 137.38 144.731 137.16 145.728 137.16C146.344 137.16 146.931 137.248 147.488 137.424C148.06 137.6 148.559 137.857 148.984 138.194C149.409 138.531 149.747 138.957 149.996 139.47C150.245 139.969 150.37 140.555 150.37 141.23C150.37 142.051 150.121 142.792 149.622 143.452C149.138 144.097 148.5 144.545 147.708 144.794V144.838C148.207 144.926 148.647 145.087 149.028 145.322C149.424 145.557 149.761 145.85 150.04 146.202C150.319 146.539 150.531 146.928 150.678 147.368C150.825 147.808 150.898 148.27 150.898 148.754C150.898 149.502 150.759 150.155 150.48 150.712C150.201 151.269 149.827 151.739 149.358 152.12C148.889 152.501 148.339 152.787 147.708 152.978C147.092 153.169 146.439 153.264 145.75 153.264C144.562 153.264 143.528 153.007 142.648 152.494C141.768 151.981 141.13 151.145 140.734 149.986L142.604 149.37C142.868 150.206 143.242 150.8 143.726 151.152C144.21 151.504 144.885 151.68 145.75 151.68C146.19 151.68 146.601 151.607 146.982 151.46C147.363 151.313 147.693 151.108 147.972 150.844C148.265 150.565 148.493 150.243 148.654 149.876C148.83 149.495 148.918 149.077 148.918 148.622C148.918 148.05 148.801 147.573 148.566 147.192C148.346 146.796 148.045 146.488 147.664 146.268C147.297 146.033 146.879 145.865 146.41 145.762C145.941 145.659 145.464 145.608 144.98 145.608H144.408V144.024ZM152.981 145.212C152.981 144.332 153.054 143.415 153.201 142.462C153.347 141.509 153.619 140.643 154.015 139.866C154.411 139.074 154.946 138.429 155.621 137.93C156.31 137.417 157.19 137.16 158.261 137.16C159.331 137.16 160.204 137.417 160.879 137.93C161.568 138.429 162.111 139.074 162.507 139.866C162.903 140.643 163.174 141.509 163.321 142.462C163.467 143.415 163.541 144.332 163.541 145.212C163.541 146.092 163.467 147.009 163.321 147.962C163.174 148.915 162.903 149.788 162.507 150.58C162.111 151.357 161.568 152.003 160.879 152.516C160.204 153.015 159.331 153.264 158.261 153.264C157.19 153.264 156.31 153.015 155.621 152.516C154.946 152.003 154.411 151.357 154.015 150.58C153.619 149.788 153.347 148.915 153.201 147.962C153.054 147.009 152.981 146.092 152.981 145.212ZM154.829 145.212C154.829 145.593 154.843 146.019 154.873 146.488C154.902 146.957 154.953 147.434 155.027 147.918C155.115 148.387 155.232 148.849 155.379 149.304C155.54 149.759 155.745 150.162 155.995 150.514C156.259 150.866 156.574 151.152 156.941 151.372C157.307 151.577 157.747 151.68 158.261 151.68C158.774 151.68 159.214 151.577 159.581 151.372C159.947 151.152 160.255 150.866 160.505 150.514C160.769 150.162 160.974 149.759 161.121 149.304C161.282 148.849 161.399 148.387 161.473 147.918C161.561 147.434 161.619 146.957 161.649 146.488C161.678 146.019 161.693 145.593 161.693 145.212C161.693 144.831 161.678 144.405 161.649 143.936C161.619 143.467 161.561 142.997 161.473 142.528C161.399 142.044 161.282 141.575 161.121 141.12C160.974 140.665 160.769 140.262 160.505 139.91C160.255 139.558 159.947 139.279 159.581 139.074C159.214 138.854 158.774 138.744 158.261 138.744C157.747 138.744 157.307 138.854 156.941 139.074C156.574 139.279 156.259 139.558 155.995 139.91C155.745 140.262 155.54 140.665 155.379 141.12C155.232 141.575 155.115 142.044 155.027 142.528C154.953 142.997 154.902 143.467 154.873 143.936C154.843 144.405 154.829 144.831 154.829 145.212ZM180.678 151.174H180.634C180.312 151.761 179.798 152.259 179.094 152.67C178.405 153.066 177.598 153.264 176.674 153.264C175.956 153.264 175.281 153.132 174.65 152.868C174.02 152.589 173.47 152.208 173 151.724C172.546 151.24 172.186 150.668 171.922 150.008C171.658 149.348 171.526 148.629 171.526 147.852C171.526 147.075 171.658 146.356 171.922 145.696C172.186 145.036 172.553 144.464 173.022 143.98C173.492 143.496 174.056 143.122 174.716 142.858C175.391 142.579 176.132 142.44 176.938 142.44C177.686 142.44 178.368 142.594 178.984 142.902C179.615 143.21 180.165 143.643 180.634 144.2H180.678V136.368H182.394V153H180.678V151.174ZM180.678 147.852C180.678 147.309 180.59 146.811 180.414 146.356C180.253 145.887 180.011 145.483 179.688 145.146C179.366 144.794 178.977 144.523 178.522 144.332C178.082 144.127 177.584 144.024 177.026 144.024C176.469 144.024 175.963 144.127 175.508 144.332C175.068 144.523 174.687 144.794 174.364 145.146C174.042 145.483 173.792 145.887 173.616 146.356C173.455 146.811 173.374 147.309 173.374 147.852C173.374 148.395 173.455 148.901 173.616 149.37C173.792 149.825 174.042 150.228 174.364 150.58C174.687 150.917 175.068 151.189 175.508 151.394C175.963 151.585 176.469 151.68 177.026 151.68C177.584 151.68 178.082 151.585 178.522 151.394C178.977 151.189 179.366 150.917 179.688 150.58C180.011 150.228 180.253 149.825 180.414 149.37C180.59 148.901 180.678 148.395 180.678 147.852ZM185.437 144.024C185.965 143.481 186.589 143.085 187.307 142.836C188.041 142.572 188.781 142.44 189.529 142.44C191.055 142.44 192.155 142.799 192.829 143.518C193.504 144.237 193.841 145.329 193.841 146.796V151.218C193.841 151.511 193.856 151.819 193.885 152.142C193.915 152.45 193.951 152.736 193.995 153H192.345C192.287 152.765 192.25 152.509 192.235 152.23C192.235 151.937 192.235 151.68 192.235 151.46H192.191C191.854 151.988 191.399 152.421 190.827 152.758C190.27 153.095 189.595 153.264 188.803 153.264C188.275 153.264 187.777 153.198 187.307 153.066C186.853 152.934 186.449 152.743 186.097 152.494C185.76 152.23 185.489 151.907 185.283 151.526C185.078 151.145 184.975 150.705 184.975 150.206C184.975 149.355 185.195 148.688 185.635 148.204C186.075 147.72 186.618 147.361 187.263 147.126C187.923 146.891 188.627 146.745 189.375 146.686C190.138 146.627 190.835 146.598 191.465 146.598H192.125V146.29C192.125 145.542 191.898 144.977 191.443 144.596C191.003 144.215 190.38 144.024 189.573 144.024C189.016 144.024 188.466 144.119 187.923 144.31C187.395 144.486 186.926 144.765 186.515 145.146L185.437 144.024ZM190.409 148.05C189.309 148.05 188.437 148.204 187.791 148.512C187.146 148.82 186.823 149.326 186.823 150.03C186.823 150.675 187.036 151.137 187.461 151.416C187.901 151.68 188.444 151.812 189.089 151.812C189.588 151.812 190.021 151.731 190.387 151.57C190.769 151.394 191.084 151.167 191.333 150.888C191.583 150.609 191.773 150.287 191.905 149.92C192.037 149.539 192.111 149.135 192.125 148.71V148.05H190.409ZM200.762 155.354C200.586 155.794 200.402 156.19 200.212 156.542C200.036 156.909 199.816 157.217 199.552 157.466C199.302 157.73 198.994 157.928 198.628 158.06C198.276 158.207 197.843 158.28 197.33 158.28C197.08 158.28 196.816 158.265 196.538 158.236C196.274 158.207 196.024 158.133 195.79 158.016L196.01 156.52C196.186 156.593 196.369 156.637 196.56 156.652C196.75 156.681 196.97 156.696 197.22 156.696C197.777 156.696 198.188 156.542 198.452 156.234C198.716 155.926 198.943 155.515 199.134 155.002L199.838 153.066L195.57 142.704H197.572L200.762 150.778H200.806L203.864 142.704H205.734L200.762 155.354ZM207.811 150.294C208.148 150.719 208.515 151.057 208.911 151.306C209.322 151.555 209.835 151.68 210.451 151.68C210.715 151.68 210.979 151.651 211.243 151.592C211.522 151.533 211.771 151.438 211.991 151.306C212.211 151.174 212.387 151.013 212.519 150.822C212.651 150.617 212.717 150.375 212.717 150.096C212.717 149.817 212.651 149.59 212.519 149.414C212.402 149.238 212.24 149.091 212.035 148.974C211.83 148.842 211.595 148.739 211.331 148.666C211.067 148.593 210.796 148.527 210.517 148.468C210.033 148.365 209.571 148.248 209.131 148.116C208.691 147.984 208.302 147.815 207.965 147.61C207.642 147.39 207.378 147.111 207.173 146.774C206.982 146.437 206.887 146.004 206.887 145.476C206.887 144.977 206.997 144.537 207.217 144.156C207.437 143.775 207.73 143.459 208.097 143.21C208.464 142.961 208.874 142.77 209.329 142.638C209.784 142.506 210.253 142.44 210.737 142.44C211.47 142.44 212.145 142.587 212.761 142.88C213.392 143.173 213.883 143.65 214.235 144.31L212.805 145.256C212.585 144.889 212.292 144.596 211.925 144.376C211.573 144.141 211.14 144.024 210.627 144.024C210.392 144.024 210.15 144.053 209.901 144.112C209.666 144.171 209.454 144.259 209.263 144.376C209.072 144.493 208.911 144.647 208.779 144.838C208.662 145.014 208.603 145.219 208.603 145.454C208.603 145.674 208.669 145.865 208.801 146.026C208.948 146.173 209.138 146.305 209.373 146.422C209.622 146.539 209.901 146.642 210.209 146.73C210.532 146.818 210.862 146.891 211.199 146.95C211.654 147.038 212.086 147.155 212.497 147.302C212.908 147.434 213.267 147.617 213.575 147.852C213.883 148.087 214.125 148.38 214.301 148.732C214.477 149.084 214.565 149.517 214.565 150.03C214.565 150.617 214.448 151.115 214.213 151.526C213.978 151.937 213.663 152.274 213.267 152.538C212.886 152.787 212.446 152.971 211.947 153.088C211.463 153.205 210.964 153.264 210.451 153.264C209.571 153.264 208.808 153.132 208.163 152.868C207.532 152.589 206.96 152.083 206.447 151.35L207.811 150.294ZM218.388 150.492C218.755 150.492 219.063 150.624 219.312 150.888C219.576 151.137 219.708 151.445 219.708 151.812C219.708 152.179 219.569 152.494 219.29 152.758C219.026 153.007 218.725 153.132 218.388 153.132C218.051 153.132 217.743 153.007 217.464 152.758C217.2 152.494 217.068 152.179 217.068 151.812C217.068 151.445 217.193 151.137 217.442 150.888C217.706 150.624 218.021 150.492 218.388 150.492Z" fill="#141313"/>
</svg>
